<svg width="36" height="36" viewBox="0 0 36 36" fill="none" xmlns="http://www.w3.org/2000/svg">
<path fill-rule="evenodd" clip-rule="evenodd" d="M27.7703 3H21.8086V4.20506C20.9544 4.50503 20.1268 4.93451 19.3425 5.48912C19.0775 5.67655 18.9199 5.98097 18.9199 6.30559V12.0447V17.6044V22.6262V25.6751C18.9199 25.935 19.0211 26.1846 19.202 26.3712L23.0853 30.3758C23.2736 30.57 23.5326 30.6797 23.8032 30.6797H25.7758C26.0464 30.6797 26.3054 30.57 26.4937 30.3758L30.377 26.3712C30.5579 26.1846 30.6591 25.935 30.6591 25.6751V25.6669V25.6587V25.6506V25.6425V25.6344V25.6264V25.6183V25.6103V25.6023V25.5944V25.5864V25.5785V25.5706V25.5627V25.5549V25.547V25.5392V25.5315V25.5237V25.516V25.5082V25.5006V25.4929V25.4852V25.4776V25.47V25.4624V25.4549V25.4473V25.4398V25.4323V25.4248V25.4174V25.4099V25.4025V25.3951V25.3878V25.3804V25.3731V25.3658V25.3585V25.3512V25.344V25.3368V25.3296V25.3224V25.3152V25.3081V25.3009V25.2938V25.2867V25.2797V25.2726V25.2656V25.2586V25.2516V25.2446V25.2377V25.2307V25.2238V25.2169V25.21V25.2032V25.1963V25.1895V25.1827V25.1759V25.1692V25.1624V25.1557V25.149V25.1423V25.1356V25.1289V25.1223V25.1157V25.1091V25.1025V25.0959V25.0893V25.0828V25.0763V25.0698V25.0633V25.0568V25.0503V25.0439V25.0375V25.0311V25.0247V25.0183V25.0119V25.0056V24.9993V24.9929V24.9866V24.9804V24.9741V24.9678V24.9616V24.9554V24.9492V24.943V24.9368V24.9306V24.9245V24.9184V24.9122V24.9061V24.9V24.894V24.8879V24.8819V24.8758V24.8698V24.8638V24.8578V24.8518V24.8459V24.8399V24.834V24.8281V24.8221V24.8162V24.8104V24.8045V24.7986V24.7928V24.7869V24.7811V24.7753V24.7695V24.7637V24.7579V24.7522V24.7464V24.7407V24.735V24.7293V24.7236V24.7179V24.7122V24.7065V24.7009V24.6952V24.6896V24.6839V24.6783V24.6727V24.6671V24.6616V24.656V24.6504V24.6449V24.6393V24.6338V24.6283V24.6228V24.6173V24.6118V24.6063V24.6008V24.5954V24.5899V24.5845V24.579V24.5736V24.5682V24.5628V24.5574V24.552V24.5466V24.5413V24.5359V24.5305V24.5252V24.5199V24.5145V24.5092V24.5039V24.4986V24.4933V24.488V24.4827V24.4774V24.4722V24.4669V24.4617V24.4564V24.4512V24.4459V24.4407V24.4355V24.4303V24.4251V24.4199V24.4147V24.4095V24.4043V24.3992V24.394V24.3888V24.3837V24.3785V24.3734V24.3683V24.3631V24.358V24.3529V24.3478V24.3426V24.3375V24.3324V24.3273V24.3223V24.3172V24.3121V24.307V24.3019V24.2969V24.2918V24.2867V24.2817V24.2766V24.2716V24.2665V24.2615V24.2565V24.2514V24.2464V24.2414V24.2364V24.2313V24.2263V24.2213V24.2163V24.2113V24.2063V24.2013V24.1963V24.1913V24.1863V24.1813V24.1763V24.1713V24.1663V24.1613V24.1564V24.1514V24.1464V24.1414V24.1365V24.1315V24.1265V24.1215V24.1166V24.1116V24.1066V24.1017V24.0967V24.0917V24.0868V24.0818V24.0768V24.0719V24.0669V24.0619V24.057V24.052V24.047V24.0421V24.0371V24.0321V24.0272V24.0222V24.0172V24.0123V24.0073V24.0023V23.9974V23.9924V23.9874V23.9825V23.9775V23.9725V23.9675V23.9625V23.9576V23.9526V23.9476V23.9426V23.9376V23.9326V23.9276V23.9226V23.9176V23.9126V23.9076V23.9026V23.8976V23.8926V23.8876V23.8826V23.8775V23.8725V23.8675V23.8624V23.8574V23.8524V23.8473V23.8423V23.8372V23.8322V23.8271V23.822V23.817V23.8119V23.8068V23.8017V23.7967V23.7916V23.7865V23.7814V23.7763V23.7712V23.766V23.7609V23.7558V23.7507V23.7455V23.7404V23.7352V23.7301V23.7249V23.7198V23.7146V23.7094V23.7042V23.699V23.6938V23.6886V23.6834V23.6782V23.673V23.6677V23.6625V23.6573V23.652V23.6467V23.6415V23.6362V23.6309V23.6256V23.6203V23.615V23.6097V23.6044V23.5991V23.5937V23.5884V23.583V23.5777V23.5723V23.5669V23.5615V23.5561V23.5507V23.5453V23.5399V23.5345V23.529V23.5236V23.5181V23.5126V23.5071V23.5017V23.4962V23.4907V23.4851V23.4796V23.4741V23.4685V23.463V23.4574V23.4518V23.4462V23.4406V23.435V23.4294V23.4237V23.4181V23.4124V23.4068V23.4011V23.3954V23.3897V23.384V23.3783V23.3725V23.3668V23.361V23.3552V23.3494V23.3436V23.3378V23.332V23.3262V23.3203V23.3145V23.3086V23.3027V23.2968V23.2909V23.285V23.279V23.2731V23.2671V23.2612V23.2552V23.2492V23.2431V23.2371V23.2311V23.225V23.2189V23.2128V23.2067V23.2006V23.1945V23.1883V23.1822V23.176V23.1698V23.1636V23.1574V23.1511V23.1449V23.1386V23.1323V23.126V23.1197V23.1134V23.1071V23.1007V23.0943V23.0879V23.0815V23.0751V23.0687V23.0622V23.0557V23.0492V23.0427V23.0362V23.0297V23.0231V23.0165V23.0099V23.0033V22.9967V22.9901V22.9834V22.9767V22.97V22.9633V22.9566V22.9498V22.9431V22.9363V22.9295V22.9227V22.9158V22.909V22.9021V22.8952V22.8883V22.8814V22.8744V22.8674V22.8604V22.8534V22.8464V22.8394V22.8323V22.8252V22.8181V22.811V22.8038V22.7967V22.7895V22.7823V22.7751V22.7678V22.7605V22.7533V22.7459V22.7386V22.7313V22.7239V22.7165V22.7091V22.7017V22.6942V22.6867V22.6793V22.6717V22.6642V22.6566V22.6491V22.6415V22.6338V22.6262V22.6182V22.6103V22.6023V22.5943V22.5862V22.5782V22.5701V22.562V22.5539V22.5457V22.5376V22.5294V22.5212V22.513V22.5047V22.4965V22.4882V22.4799V22.4715V22.4632V22.4548V22.4464V22.438V22.4296V22.4212V22.4127V22.4042V22.3957V22.3872V22.3786V22.3701V22.3615V22.3529V22.3442V22.3356V22.3269V22.3183V22.3096V22.3008V22.2921V22.2833V22.2746V22.2658V22.257V22.2481V22.2393V22.2304V22.2215V22.2126V22.2037V22.1948V22.1858V22.1769V22.1679V22.1589V22.1499V22.1408V22.1318V22.1227V22.1136V22.1045V22.0954V22.0862V22.0771V22.0679V22.0587V22.0495V22.0403V22.031V22.0218V22.0125V22.0032V21.9939V21.9846V21.9752V21.9659V21.9565V21.9471V21.9377V21.9283V21.9189V21.9095V21.9V21.8905V21.8811V21.8715V21.862V21.8525V21.843V21.8334V21.8238V21.8142V21.8046V21.795V21.7854V21.7757V21.7661V21.7564V21.7467V21.737V21.7273V21.7176V21.7079V21.6981V21.6884V21.6786V21.6688V21.659V21.6492V21.6393V21.6295V21.6196V21.6098V21.5999V21.59V21.5801V21.5702V21.5603V21.5503V21.5404V21.5304V21.5204V21.5105V21.5005V21.4905V21.4804V21.4704V21.4604V21.4503V21.4403V21.4302V21.4201V21.41V21.3999V21.3898V21.3797V21.3695V21.3594V21.3492V21.3391V21.3289V21.3187V21.3085V21.2983V21.2881V21.2779V21.2676V21.2574V21.2471V21.2369V21.2266V21.2163V21.206V21.1957V21.1854V21.1751V21.1648V21.1544V21.1441V21.1337V21.1234V21.113V21.1026V21.0923V21.0819V21.0715V21.0611V21.0507V21.0402V21.0298V21.0194V21.0089V20.9985V20.988V20.9776V20.9671V20.9566V20.9461V20.9356V20.9251V20.9146V20.9041V20.8936V20.8831V20.8726V20.862V20.8515V20.8409V20.8304V20.8198V20.8093V20.7987V20.7881V20.7775V20.7669V20.7564V20.7458V20.7352V20.7245V20.7139V20.7033V20.6927V20.6821V20.6714V20.6608V20.6502V20.6395V20.6289V20.6182V20.6076V20.5969V20.5862V20.5756V20.5649V20.5542V20.5436V20.5329V20.5222V20.5115V20.5008V20.4901V20.4794V20.4687V20.458V20.4473V20.4366V20.4259V20.4152V20.4045V20.3937V20.383V20.3723V20.3616V20.3509V20.3401V20.3294V20.3187V20.3079V20.2972V20.2865V20.2757V20.265V20.2542V20.2435V20.2328V20.222V20.2113V20.2005V20.1898V20.179V20.1683V20.1575V20.1468V20.136V20.1253V20.1145V20.1038V20.0931V20.0823V20.0716V20.0608V20.0501V20.0393V20.0286V20.0178V20.0071V19.9963V19.9856V19.9749V19.9641V19.9534V19.9426V19.9319V19.9212V19.9104V19.8997V19.889V19.8783V19.8675V19.8568V19.8461V19.8354V19.8247V19.8139V19.8032V19.7925V19.7818V19.7711V19.7604V19.7497V19.739V19.7283V19.7176V19.7069V19.6963V19.6856V19.6749V19.6642V19.6536V19.6429V19.6322V19.6216V19.6109V19.6003V19.5896V19.579V19.5684V19.5577V19.5471V19.5365V19.5258V19.5152V19.5046V19.494V19.4834V19.4728V19.4622V19.4517V19.4411V19.4305V19.4199V19.4094V19.3988V19.3883V19.3777V19.3672V19.3567V19.3461V19.3356V19.3251V19.3146V19.3041V19.2936V19.2831V19.2726V19.2621V19.2517V19.2412V19.2308V19.2203V19.2099V19.1995V19.189V19.1786V19.1682V19.1578V19.1474V19.137V19.1266V19.1163V19.1059V19.0956V19.0852V19.0749V19.0646V19.0542V19.0439V19.0336V19.0233V19.013V19.0028V18.9925V18.9822V18.972V18.9618V18.9515V18.9413V18.9311V18.9209V18.9107V18.9005V18.8904V18.8802V18.87V18.8599V18.8498V18.8397V18.8295V18.8194V18.8094V18.7993V18.7892V18.7792V18.7691V18.7591V18.749V18.739V18.729V18.719V18.7091V18.6991V18.6891V18.6792V18.6693V18.6594V18.6494V18.6395V18.6297V18.6198V18.6099V18.6001V18.5903V18.5804V18.5706V18.5608V18.551V18.5413V18.5315V18.5218V18.512V18.5023V18.4926V18.4829V18.4733V18.4636V18.4539V18.4443V18.4347V18.4251V18.4155V18.4059V18.3963V18.3868V18.3773V18.3677V18.3582V18.3487V18.3392V18.3298V18.3203V18.3109V18.3015V18.2921V18.2827V18.2733V18.264V18.2546V18.2453V18.236V18.2267V18.2174V18.2081V18.1989V18.1897V18.1804V18.1712V18.1621V18.1529V18.1438V18.1346V18.1255V18.1164V18.1073V18.0983V18.0892V18.0802V18.0712V18.0622V18.0532V18.0442V18.0353V18.0264V18.0174V18.0086V17.9997V17.9908V17.982V17.9732V17.9644V17.9556V17.9468V17.9381V17.9294V17.9206V17.912V17.9033V17.8946V17.886V17.8774V17.8688V17.8602V17.8517V17.8431V17.8346V17.8261V17.8176V17.8092V17.8007V17.7923V17.7839V17.7756V17.7672V17.7589V17.7505V17.7422V17.734V17.7257V17.7175V17.7093V17.7011V17.6929V17.6848V17.6766V17.6685V17.6604V17.6524V17.6443V17.6363V17.6283V17.6203V17.6124V17.6044V17.594V17.5836V17.5732V17.5628V17.5524V17.542V17.5316V17.5211V17.5107V17.5003V17.4899V17.4795V17.4691V17.4586V17.4482V17.4378V17.4274V17.4169V17.4065V17.3961V17.3857V17.3752V17.3648V17.3544V17.3439V17.3335V17.3231V17.3126V17.3022V17.2918V17.2813V17.2709V17.2604V17.25V17.2395V17.2291V17.2187V17.2082V17.1978V17.1873V17.1769V17.1664V17.156V17.1455V17.1351V17.1246V17.1141V17.1037V17.0932V17.0828V17.0723V17.0618V17.0514V17.0409V17.0305V17.02V17.0095V16.999V16.9886V16.9781V16.9676V16.9572V16.9467V16.9362V16.9257V16.9152V16.9048V16.8943V16.8838V16.8733V16.8628V16.8523V16.8419V16.8314V16.8209V16.8104V16.7999V16.7894V16.7789V16.7684V16.7579V16.7474V16.7369V16.7264V16.7159V16.7054V16.6949V16.6844V16.6739V16.6634V16.6528V16.6423V16.6318V16.6213V16.6108V16.6003V16.5897V16.5792V16.5687V16.5582V16.5477V16.5371V16.5266V16.5161V16.5055V16.495V16.4845V16.4739V16.4634V16.4529V16.4423V16.4318V16.4212V16.4107V16.4001V16.3896V16.379V16.3685V16.3579V16.3474V16.3368V16.3263V16.3157V16.3052V16.2946V16.284V16.2735V16.2629V16.2523V16.2418V16.2312V16.2206V16.2101V16.1995V16.1889V16.1783V16.1677V16.1572V16.1466V16.136V16.1254V16.1148V16.1042V16.0936V16.0831V16.0725V16.0619V16.0513V16.0407V16.0301V16.0195V16.0089V15.9983V15.9876V15.977V15.9664V15.9558V15.9452V15.9346V15.924V15.9133V15.9027V15.8921V15.8815V15.8708V15.8602V15.8496V15.839V15.8283V15.8177V15.8071V15.7964V15.7858V15.7751V15.7645V15.7538V15.7432V15.7325V15.7219V15.7112V15.7006V15.6899V15.6793V15.6686V15.658V15.6473V15.6366V15.626V15.6153V15.6046V15.5939V15.5833V15.5726V15.5619V15.5512V15.5405V15.5299V15.5192V15.5085V15.4978V15.4871V15.4764V15.4657V15.455V15.4443V15.4336V15.4229V15.4122V15.4015V15.3908V15.3801V15.3694V15.3587V15.3479V15.3372V15.3265V15.3158V15.3051V15.2943V15.2836V15.2729V15.2621V15.2514V15.2407V15.2299V15.2192V15.2084V15.1977V15.1869V15.1762V15.1654V15.1547V15.1439V15.1332V15.1224V15.1117V15.1009V15.0901V15.0794V15.0686V15.0578V15.047V15.0363V15.0255V15.0147V15.0039V14.9931V14.9824V14.9716V14.9608V14.95V14.9392V14.9284V14.9176V14.9068V14.896V14.8852V14.8744V14.8636V14.8527V14.8419V14.8311V14.8203V14.8095V14.7986V14.7878V14.777V14.7662V14.7553V14.7445V14.7337V14.7228V14.712V14.7011V14.6903V14.6794V14.6686V14.6577V14.6469V14.636V14.6252V14.6143V14.6034V14.5926V14.5817V14.5708V14.56V14.5491V14.5382V14.5273V14.5164V14.5055V14.4947V14.4838V14.4729V14.462V14.4511V14.4402V14.4293V14.4184V14.4075V14.3966V14.3856V14.3747V14.3638V14.3529V14.342V14.3311V14.3201V14.3092V14.2983V14.2873V14.2764V14.2655V14.2545V14.2436V14.2326V14.2217V14.2107V14.1998V14.1888V14.1779V14.1669V14.1559V14.145V14.134V14.123V14.1121V14.1011V14.0901V14.0791V14.0681V14.0571V14.0462V14.0352V14.0242V14.0132V14.0022V13.9912V13.9802V13.9692V13.9582V13.9471V13.9361V13.9251V13.9141V13.9031V13.892V13.881V13.87V13.859V13.8479V13.8369V13.8258V13.8148V13.8037V13.7927V13.7816V13.7706V13.7595V13.7485V13.7374V13.7263V13.7153V13.7042V13.6931V13.6821V13.671V13.6599V13.6488V13.6377V13.6266V13.6155V13.6044V13.5934V13.5822V13.5711V13.56V13.5489V13.5378V13.5267V13.5156V13.5045V13.4933V13.4822V13.4711V13.46V13.4488V13.4377V13.4265V13.4154V13.4043V13.3931V13.382V13.3708V13.3596V13.3485V13.3373V13.3262V13.315V13.3038V13.2926V13.2815V13.2703V13.2591V13.2479V13.2367V13.2255V13.2143V13.2031V13.1919V13.1807V13.1695V13.1583V13.1471V13.1359V13.1247V13.1135V13.1022V13.091V13.0798V13.0685V13.0573V13.0461V13.0348V13.0236V13.0123V13.0011V12.9898V12.9786V12.9673V12.956V12.9448V12.9335V12.9222V12.911V12.8997V12.8884V12.8771V12.8658V12.8545V12.8432V12.8319V12.8206V12.8093V12.798V12.7867V12.7754V12.7641V12.7528V12.7414V12.7301V12.7188V12.7075V12.6961V12.6848V12.6734V12.6621V12.6508V12.6394V12.628V12.6167V12.6053V12.594V12.5826V12.5712V12.5599V12.5485V12.5371V12.5257V12.5143V12.5029V12.4915V12.4802V12.4688V12.4574V12.4459V12.4345V12.4231V12.4117V12.4003V12.3889V12.3774V12.366V12.3546V12.3431V12.3317V12.3203V12.3088V12.2974V12.2859V12.2745V12.263V12.2515V12.2401V12.2286V12.2171V12.2057V12.1942V12.1827V12.1712V12.1597V12.1482V12.1367V12.1252V12.1137V12.1022V12.0907V12.0792V12.0677V12.0562V12.0447V12.0343V12.024V12.0136V12.0033V11.9929V11.9825V11.9722V11.9618V11.9514V11.9411V11.9307V11.9203V11.9099V11.8996V11.8892V11.8788V11.8684V11.858V11.8476V11.8372V11.8268V11.8164V11.806V11.7956V11.7852V11.7748V11.7643V11.7539V11.7435V11.7331V11.7226V11.7122V11.7018V11.6913V11.6809V11.6704V11.66V11.6496V11.6391V11.6286V11.6182V11.6077V11.5973V11.5868V11.5763V11.5658V11.5554V11.5449V11.5344V11.5239V11.5134V11.5029V11.4924V11.4819V11.4714V11.4609V11.4504V11.4399V11.4294V11.4189V11.4084V11.3979V11.3873V11.3768V11.3663V11.3557V11.3452V11.3347V11.3241V11.3136V11.303V11.2925V11.2819V11.2714V11.2608V11.2502V11.2397V11.2291V11.2185V11.208V11.1974V11.1868V11.1762V11.1656V11.155V11.1444V11.1338V11.1232V11.1126V11.102V11.0914V11.0808V11.0702V11.0596V11.049V11.0383V11.0277V11.0171V11.0064V10.9958V10.9852V10.9745V10.9639V10.9532V10.9426V10.9319V10.9213V10.9106V10.8999V10.8893V10.8786V10.8679V10.8572V10.8466V10.8359V10.8252V10.8145V10.8038V10.7931V10.7824V10.7717V10.761V10.7503V10.7396V10.7288V10.7181V10.7074V10.6967V10.6859V10.6752V10.6645V10.6537V10.643V10.6322V10.6215V10.6107V10.6V10.5892V10.5785V10.5677V10.5569V10.5462V10.5354V10.5246V10.5138V10.503V10.4923V10.4815V10.4707V10.4599V10.4491V10.4383V10.4275V10.4166V10.4058V10.395V10.3842V10.3734V10.3625V10.3517V10.3409V10.33V10.3192V10.3084V10.2975V10.2867V10.2758V10.2649V10.2541V10.2432V10.2323V10.2215V10.2106V10.1997V10.1888V10.178V10.1671V10.1562V10.1453V10.1344V10.1235V10.1126V10.1017V10.0907V10.0798V10.0689V10.058V10.0471V10.0361V10.0252V10.0143V10.0033V9.99238V9.98143V9.97048V9.95953V9.94857V9.93761V9.92665V9.91568V9.90471V9.89373V9.88275V9.87177V9.86079V9.8498V9.83881V9.82781V9.81681V9.80581V9.7948V9.78379V9.77278V9.76176V9.75074V9.73972V9.72869V9.71766V9.70662V9.69559V9.68454V9.6735V9.66245V9.6514V9.64034V9.62928V9.61822V9.60715V9.59608V9.58501V9.57393V9.56285V9.55176V9.54068V9.52958V9.51849V9.50739V9.49629V9.48518V9.47407V9.46296V9.45184V9.44072V9.42959V9.41847V9.40733V9.3962V9.38506V9.37392V9.36277V9.35162V9.34047V9.32931V9.31815V9.30698V9.29582V9.28464V9.27347V9.26229V9.25111V9.23992V9.22873V9.21753V9.20634V9.19513V9.18393V9.17272V9.16151V9.15029V9.13907V9.12785V9.11662V9.10539V9.09415V9.08291V9.07167V9.06042V9.04917V9.03792V9.02666V9.0154V9.00414V8.99287V8.98159V8.97032V8.95904V8.94775V8.93646V8.92517V8.91388V8.90258V8.89127V8.87997V8.86866V8.85734V8.84602V8.8347V8.82337V8.81204V8.80071V8.78937V8.77803V8.76669V8.75534V8.74398V8.73263V8.72127V8.7099V8.69853V8.68716V8.67578V8.6644V8.65302V8.64163V8.63024V8.61884V8.60745V8.59604V8.58463V8.57322V8.56181V8.55039V8.53897V8.52754V8.51611V8.50467V8.49323V8.48179V8.47035V8.45889V8.44744V8.43598V8.42452V8.41305V8.40158V8.39011V8.37863V8.36715V8.35566V8.34417V8.33268V8.32118V8.30968V8.29817V8.28666V8.27515V8.26363V8.25211V8.24058V8.22905V8.21752V8.20598V8.19444V8.18289V8.17134V8.15978V8.14823V8.13666V8.1251V8.11353V8.10195V8.09037V8.07879V8.0672V8.05561V8.04402V8.03242V8.02082V8.00921V7.9976V7.98598V7.97436V7.96274V7.95111V7.93948V7.92784V7.9162V7.90456V7.89291V7.88126V7.8696V7.85794V7.84628V7.83461V7.82294V7.81126V7.79958V7.78789V7.7762V7.76451V7.75281V7.74111V7.7294V7.71769V7.70598V7.69426V7.68254V7.67081V7.65908V7.64734V7.6356V7.62386V7.61211V7.60036V7.5886V7.57684V7.56508V7.55331V7.54154V7.52976V7.51798V7.50619V7.4944V7.48261V7.47081V7.459V7.4472V7.43539V7.42357V7.41175V7.39993V7.3881V7.37626V7.36443V7.35259V7.34074V7.32889V7.31704V7.30518V7.29331V7.28145V7.26958V7.2577V7.24582V7.23393V7.22205V7.21015V7.19826V7.18635V7.17445V7.16254V7.15062V7.1387V7.12678V7.11485V7.10292V7.09098V7.07904V7.0671V7.05515V7.04319V7.03124V7.01927V7.00731V6.99533V6.98336V6.97138V6.95939V6.9474V6.93541V6.92341V6.91141V6.8994V6.88739V6.87538V6.86336V6.85133V6.8393V6.82727V6.81523V6.80319V6.79114V6.77909V6.76704V6.75498V6.74291V6.73084V6.71877V6.70669V6.69461V6.68252V6.67043V6.65834V6.64624V6.63413V6.62202V6.60991V6.59779V6.58567V6.57354V6.56141V6.54927V6.53713V6.52499V6.51284V6.50068V6.48852V6.47636V6.46419V6.45202V6.43984V6.42766V6.41547V6.40328V6.39109V6.37889V6.36668V6.35447V6.34226V6.33004V6.31782V6.30559C30.6591 5.98097 30.5015 5.67654 30.2364 5.48911C29.4521 4.93449 28.6245 4.50499 27.7703 4.20502V3ZM26.9187 6.02858C25.5179 5.57902 24.0611 5.57902 22.6603 6.02858C22.0712 6.21762 21.4879 6.48753 20.9199 6.84124V10.2024C23.2278 9.09796 26.1836 9.08529 28.6591 10.2592V10.2541V10.2432V10.2323V10.2215V10.2106V10.1997V10.1888V10.178V10.1671V10.1562V10.1453V10.1344V10.1235V10.1126V10.1017V10.0907V10.0798V10.0689V10.058V10.0471V10.0361V10.0252V10.0143V10.0033V9.99238V9.98143V9.97048V9.95953V9.94857V9.93761V9.92665V9.91568V9.90471V9.89373V9.88275V9.87177V9.86079V9.8498V9.83881V9.82781V9.81681V9.80581V9.7948V9.78379V9.77278V9.76176V9.75074V9.73972V9.72869V9.71766V9.70662V9.69559V9.68454V9.6735V9.66245V9.6514V9.64034V9.62928V9.61822V9.60715V9.59608V9.58501V9.57393V9.56285V9.55176V9.54068V9.52958V9.51849V9.50739V9.49629V9.48518V9.47407V9.46296V9.45184V9.44072V9.42959V9.41847V9.40733V9.3962V9.38506V9.37392V9.36277V9.35162V9.34047V9.32931V9.31815V9.30698V9.29582V9.28464V9.27347V9.26229V9.25111V9.23992V9.22873V9.21753V9.20634V9.19513V9.18393V9.17272V9.16151V9.15029V9.13907V9.12785V9.11662V9.10539V9.09415V9.08291V9.07167V9.06042V9.04917V9.03792V9.02666V9.0154V9.00414V8.99287V8.98159V8.97032V8.95904V8.94775V8.93646V8.92517V8.91388V8.90258V8.89127V8.87997V8.86866V8.85734V8.84602V8.8347V8.82337V8.81204V8.80071V8.78937V8.77803V8.76669V8.75534V8.74398V8.73263V8.72127V8.7099V8.69853V8.68716V8.67578V8.6644V8.65302V8.64163V8.63024V8.61884V8.60745V8.59604V8.58463V8.57322V8.56181V8.55039V8.53897V8.52754V8.51611V8.50467V8.49323V8.48179V8.47035V8.45889V8.44744V8.43598V8.42452V8.41305V8.40158V8.39011V8.37863V8.36715V8.35566V8.34417V8.33268V8.32118V8.30968V8.29817V8.28666V8.27515V8.26363V8.25211V8.24058V8.22905V8.21752V8.20598V8.19444V8.18289V8.17134V8.15978V8.14823V8.13666V8.1251V8.11353V8.10195V8.09037V8.07879V8.0672V8.05561V8.04402V8.03242V8.02082V8.00921V7.9976V7.98598V7.97436V7.96274V7.95111V7.93948V7.92784V7.9162V7.90456V7.89291V7.88126V7.8696V7.85794V7.84628V7.83461V7.82294V7.81126V7.79958V7.78789V7.7762V7.76451V7.75281V7.74111V7.7294V7.71769V7.70598V7.69426V7.68254V7.67081V7.65908V7.64734V7.6356V7.62386V7.61211V7.60036V7.5886V7.57684V7.56508V7.55331V7.54154V7.52976V7.51798V7.50619V7.4944V7.48261V7.47081V7.459V7.4472V7.43539V7.42357V7.41175V7.39993V7.3881V7.37626V7.36443V7.35259V7.34074V7.32889V7.31704V7.30518V7.29331V7.28145V7.26958V7.2577V7.24582V7.23393V7.22205V7.21015V7.19826V7.18635V7.17445V7.16254V7.15062V7.1387V7.12678V7.11485V7.10292V7.09098V7.07904V7.0671V7.05515V7.04319V7.03124V7.01927V7.00731V6.99533V6.98336V6.97138V6.95939V6.9474V6.93541V6.92341V6.91141V6.8994V6.88739V6.87538V6.86336V6.85133V6.84124C28.0911 6.48753 27.5078 6.21763 26.9187 6.02858ZM28.6591 12.5528C26.2461 10.9286 22.9236 11.0505 20.9199 12.5219V15.7897C22.11 15.2454 23.4707 14.9903 24.7895 14.9903C26.1082 14.9903 27.469 15.2454 28.6591 15.7897V15.7858V15.7751V15.7645V15.7538V15.7432V15.7325V15.7219V15.7112V15.7006V15.6899V15.6793V15.6686V15.658V15.6473V15.6366V15.626V15.6153V15.6046V15.5939V15.5833V15.5726V15.5619V15.5512V15.5405V15.5299V15.5192V15.5085V15.4978V15.4871V15.4764V15.4657V15.455V15.4443V15.4336V15.4229V15.4122V15.4015V15.3908V15.3801V15.3694V15.3587V15.3479V15.3372V15.3265V15.3158V15.3051V15.2943V15.2836V15.2729V15.2621V15.2514V15.2407V15.2299V15.2192V15.2084V15.1977V15.1869V15.1762V15.1654V15.1547V15.1439V15.1332V15.1224V15.1117V15.1009V15.0901V15.0794V15.0686V15.0578V15.047V15.0363V15.0255V15.0147V15.0039V14.9931V14.9824V14.9716V14.9608V14.95V14.9392V14.9284V14.9176V14.9068V14.896V14.8852V14.8744V14.8636V14.8527V14.8419V14.8311V14.8203V14.8095V14.7986V14.7878V14.777V14.7662V14.7553V14.7445V14.7337V14.7228V14.712V14.7011V14.6903V14.6794V14.6686V14.6577V14.6469V14.636V14.6252V14.6143V14.6034V14.5926V14.5817V14.5708V14.56V14.5491V14.5382V14.5273V14.5164V14.5055V14.4947V14.4838V14.4729V14.462V14.4511V14.4402V14.4293V14.4184V14.4075V14.3966V14.3856V14.3747V14.3638V14.3529V14.342V14.3311V14.3201V14.3092V14.2983V14.2873V14.2764V14.2655V14.2545V14.2436V14.2326V14.2217V14.2107V14.1998V14.1888V14.1779V14.1669V14.1559V14.145V14.134V14.123V14.1121V14.1011V14.0901V14.0791V14.0681V14.0571V14.0462V14.0352V14.0242V14.0132V14.0022V13.9912V13.9802V13.9692V13.9582V13.9471V13.9361V13.9251V13.9141V13.9031V13.892V13.881V13.87V13.859V13.8479V13.8369V13.8258V13.8148V13.8037V13.7927V13.7816V13.7706V13.7595V13.7485V13.7374V13.7263V13.7153V13.7042V13.6931V13.6821V13.671V13.6599V13.6488V13.6377V13.6266V13.6155V13.6044V13.5934V13.5822V13.5711V13.56V13.5489V13.5378V13.5267V13.5156V13.5045V13.4933V13.4822V13.4711V13.46V13.4488V13.4377V13.4265V13.4154V13.4043V13.3931V13.382V13.3708V13.3596V13.3485V13.3373V13.3262V13.315V13.3038V13.2926V13.2815V13.2703V13.2591V13.2479V13.2367V13.2255V13.2143V13.2031V13.1919V13.1807V13.1695V13.1583V13.1471V13.1359V13.1247V13.1135V13.1022V13.091V13.0798V13.0685V13.0573V13.0461V13.0348V13.0236V13.0123V13.0011V12.9898V12.9786V12.9673V12.956V12.9448V12.9335V12.9222V12.911V12.8997V12.8884V12.8771V12.8658V12.8545V12.8432V12.8319V12.8206V12.8093V12.798V12.7867V12.7754V12.7641V12.7528V12.7414V12.7301V12.7188V12.7075V12.6961V12.6848V12.6734V12.6621V12.6508V12.6394V12.628V12.6167V12.6053V12.594V12.5826V12.5712V12.5599V12.5528ZM28.6591 18.0858C27.6747 17.3833 26.2702 16.9903 24.7895 16.9903C23.3088 16.9903 21.9043 17.3833 20.9199 18.0858V20.9236C22.1116 20.4385 23.4741 20.2138 24.7895 20.2138C26.1049 20.2138 27.4673 20.4385 28.6591 20.9236V20.9146V20.9041V20.8936V20.8831V20.8726V20.862V20.8515V20.8409V20.8304V20.8198V20.8093V20.7987V20.7881V20.7775V20.7669V20.7564V20.7458V20.7352V20.7245V20.7139V20.7033V20.6927V20.6821V20.6714V20.6608V20.6502V20.6395V20.6289V20.6182V20.6076V20.5969V20.5862V20.5756V20.5649V20.5542V20.5436V20.5329V20.5222V20.5115V20.5008V20.4901V20.4794V20.4687V20.458V20.4473V20.4366V20.4259V20.4152V20.4045V20.3937V20.383V20.3723V20.3616V20.3509V20.3401V20.3294V20.3187V20.3079V20.2972V20.2865V20.2757V20.265V20.2542V20.2435V20.2328V20.222V20.2113V20.2005V20.1898V20.179V20.1683V20.1575V20.1468V20.136V20.1253V20.1145V20.1038V20.0931V20.0823V20.0716V20.0608V20.0501V20.0393V20.0286V20.0178V20.0071V19.9963V19.9856V19.9749V19.9641V19.9534V19.9426V19.9319V19.9212V19.9104V19.8997V19.889V19.8783V19.8675V19.8568V19.8461V19.8354V19.8247V19.8139V19.8032V19.7925V19.7818V19.7711V19.7604V19.7497V19.739V19.7283V19.7176V19.7069V19.6963V19.6856V19.6749V19.6642V19.6536V19.6429V19.6322V19.6216V19.6109V19.6003V19.5896V19.579V19.5684V19.5577V19.5471V19.5365V19.5258V19.5152V19.5046V19.494V19.4834V19.4728V19.4622V19.4517V19.4411V19.4305V19.4199V19.4094V19.3988V19.3883V19.3777V19.3672V19.3567V19.3461V19.3356V19.3251V19.3146V19.3041V19.2936V19.2831V19.2726V19.2621V19.2517V19.2412V19.2308V19.2203V19.2099V19.1995V19.189V19.1786V19.1682V19.1578V19.1474V19.137V19.1266V19.1163V19.1059V19.0956V19.0852V19.0749V19.0646V19.0542V19.0439V19.0336V19.0233V19.013V19.0028V18.9925V18.9822V18.972V18.9618V18.9515V18.9413V18.9311V18.9209V18.9107V18.9005V18.8904V18.8802V18.87V18.8599V18.8498V18.8397V18.8295V18.8194V18.8094V18.7993V18.7892V18.7792V18.7691V18.7591V18.749V18.739V18.729V18.719V18.7091V18.6991V18.6891V18.6792V18.6693V18.6594V18.6494V18.6395V18.6297V18.6198V18.6099V18.6001V18.5903V18.5804V18.5706V18.5608V18.551V18.5413V18.5315V18.5218V18.512V18.5023V18.4926V18.4829V18.4733V18.4636V18.4539V18.4443V18.4347V18.4251V18.4155V18.4059V18.3963V18.3868V18.3773V18.3677V18.3582V18.3487V18.3392V18.3298V18.3203V18.3109V18.3015V18.2921V18.2827V18.2733V18.264V18.2546V18.2453V18.236V18.2267V18.2174V18.2081V18.1989V18.1897V18.1804V18.1712V18.1621V18.1529V18.1438V18.1346V18.1255V18.1164V18.1073V18.0983V18.0892V18.0858ZM28.6591 23.1517C27.6719 22.5533 26.2711 22.2138 24.7895 22.2138C23.3079 22.2138 21.907 22.5533 20.9199 23.1517V25.2698L24.2264 28.6797H25.3526L28.6591 25.2698V25.2656V25.2586V25.2516V25.2446V25.2377V25.2307V25.2238V25.2169V25.21V25.2032V25.1963V25.1895V25.1827V25.1759V25.1692V25.1624V25.1557V25.149V25.1423V25.1356V25.1289V25.1223V25.1157V25.1091V25.1025V25.0959V25.0893V25.0828V25.0763V25.0698V25.0633V25.0568V25.0503V25.0439V25.0375V25.0311V25.0247V25.0183V25.0119V25.0056V24.9993V24.9929V24.9866V24.9804V24.9741V24.9678V24.9616V24.9554V24.9492V24.943V24.9368V24.9306V24.9245V24.9184V24.9122V24.9061V24.9V24.894V24.8879V24.8819V24.8758V24.8698V24.8638V24.8578V24.8518V24.8459V24.8399V24.834V24.8281V24.8221V24.8162V24.8104V24.8045V24.7986V24.7928V24.7869V24.7811V24.7753V24.7695V24.7637V24.7579V24.7522V24.7464V24.7407V24.735V24.7293V24.7236V24.7179V24.7122V24.7065V24.7009V24.6952V24.6896V24.6839V24.6783V24.6727V24.6671V24.6616V24.656V24.6504V24.6449V24.6393V24.6338V24.6283V24.6228V24.6173V24.6118V24.6063V24.6008V24.5954V24.5899V24.5845V24.579V24.5736V24.5682V24.5628V24.5574V24.552V24.5466V24.5413V24.5359V24.5305V24.5252V24.5199V24.5145V24.5092V24.5039V24.4986V24.4933V24.488V24.4827V24.4774V24.4722V24.4669V24.4617V24.4564V24.4512V24.4459V24.4407V24.4355V24.4303V24.4251V24.4199V24.4147V24.4095V24.4043V24.3992V24.394V24.3888V24.3837V24.3785V24.3734V24.3683V24.3631V24.358V24.3529V24.3478V24.3426V24.3375V24.3324V24.3273V24.3223V24.3172V24.3121V24.307V24.3019V24.2969V24.2918V24.2867V24.2817V24.2766V24.2716V24.2665V24.2615V24.2565V24.2514V24.2464V24.2414V24.2364V24.2313V24.2263V24.2213V24.2163V24.2113V24.2063V24.2013V24.1963V24.1913V24.1863V24.1813V24.1763V24.1713V24.1663V24.1613V24.1564V24.1514V24.1464V24.1414V24.1365V24.1315V24.1265V24.1215V24.1166V24.1116V24.1066V24.1017V24.0967V24.0917V24.0868V24.0818V24.0768V24.0719V24.0669V24.0619V24.057V24.052V24.047V24.0421V24.0371V24.0321V24.0272V24.0222V24.0172V24.0123V24.0073V24.0023V23.9974V23.9924V23.9874V23.9825V23.9775V23.9725V23.9675V23.9625V23.9576V23.9526V23.9476V23.9426V23.9376V23.9326V23.9276V23.9226V23.9176V23.9126V23.9076V23.9026V23.8976V23.8926V23.8876V23.8826V23.8775V23.8725V23.8675V23.8624V23.8574V23.8524V23.8473V23.8423V23.8372V23.8322V23.8271V23.822V23.817V23.8119V23.8068V23.8017V23.7967V23.7916V23.7865V23.7814V23.7763V23.7712V23.766V23.7609V23.7558V23.7507V23.7455V23.7404V23.7352V23.7301V23.7249V23.7198V23.7146V23.7094V23.7042V23.699V23.6938V23.6886V23.6834V23.6782V23.673V23.6677V23.6625V23.6573V23.652V23.6467V23.6415V23.6362V23.6309V23.6256V23.6203V23.615V23.6097V23.6044V23.5991V23.5937V23.5884V23.583V23.5777V23.5723V23.5669V23.5615V23.5561V23.5507V23.5453V23.5399V23.5345V23.529V23.5236V23.5181V23.5126V23.5071V23.5017V23.4962V23.4907V23.4851V23.4796V23.4741V23.4685V23.463V23.4574V23.4518V23.4462V23.4406V23.435V23.4294V23.4237V23.4181V23.4124V23.4068V23.4011V23.3954V23.3897V23.384V23.3783V23.3725V23.3668V23.361V23.3552V23.3494V23.3436V23.3378V23.332V23.3262V23.3203V23.3145V23.3086V23.3027V23.2968V23.2909V23.285V23.279V23.2731V23.2671V23.2612V23.2552V23.2492V23.2431V23.2371V23.2311V23.225V23.2189V23.2128V23.2067V23.2006V23.1945V23.1883V23.1822V23.176V23.1698V23.1636V23.1574V23.1517ZM23.5703 31.2344H26.0051V33.8992H23.5703V31.2344Z" fill="#4C779D"/>
<path fill-rule="evenodd" clip-rule="evenodd" d="M14.1921 3H8.23047V4.20506C7.37626 4.50503 6.54867 4.93451 5.76441 5.48912C5.49937 5.67655 5.3418 5.98097 5.3418 6.30559V12.0447V17.6044V22.6262V25.6751C5.3418 25.935 5.44298 26.1846 5.6239 26.3712L9.50714 30.3758C9.69549 30.57 9.95449 30.6797 10.225 30.6797H12.1977C12.4682 30.6797 12.7272 30.57 12.9156 30.3758L16.7988 26.3712C16.9798 26.1846 17.0809 25.935 17.0809 25.6751V25.6669V25.6587V25.6506V25.6425V25.6344V25.6264V25.6183V25.6103V25.6023V25.5944V25.5864V25.5785V25.5706V25.5627V25.5549V25.547V25.5392V25.5315V25.5237V25.516V25.5082V25.5006V25.4929V25.4852V25.4776V25.47V25.4624V25.4549V25.4473V25.4398V25.4323V25.4248V25.4174V25.4099V25.4025V25.3951V25.3878V25.3804V25.3731V25.3658V25.3585V25.3512V25.344V25.3368V25.3296V25.3224V25.3152V25.3081V25.3009V25.2938V25.2867V25.2797V25.2726V25.2656V25.2586V25.2516V25.2446V25.2377V25.2307V25.2238V25.2169V25.21V25.2032V25.1963V25.1895V25.1827V25.1759V25.1692V25.1624V25.1557V25.149V25.1423V25.1356V25.1289V25.1223V25.1157V25.1091V25.1025V25.0959V25.0893V25.0828V25.0763V25.0698V25.0633V25.0568V25.0503V25.0439V25.0375V25.0311V25.0247V25.0183V25.0119V25.0056V24.9993V24.9929V24.9866V24.9804V24.9741V24.9678V24.9616V24.9554V24.9492V24.943V24.9368V24.9306V24.9245V24.9184V24.9122V24.9061V24.9V24.894V24.8879V24.8819V24.8758V24.8698V24.8638V24.8578V24.8518V24.8459V24.8399V24.834V24.8281V24.8221V24.8162V24.8104V24.8045V24.7986V24.7928V24.7869V24.7811V24.7753V24.7695V24.7637V24.7579V24.7522V24.7464V24.7407V24.735V24.7293V24.7236V24.7179V24.7122V24.7065V24.7009V24.6952V24.6896V24.6839V24.6783V24.6727V24.6671V24.6616V24.656V24.6504V24.6449V24.6393V24.6338V24.6283V24.6228V24.6173V24.6118V24.6063V24.6008V24.5954V24.5899V24.5845V24.579V24.5736V24.5682V24.5628V24.5574V24.552V24.5466V24.5413V24.5359V24.5305V24.5252V24.5199V24.5145V24.5092V24.5039V24.4986V24.4933V24.488V24.4827V24.4774V24.4722V24.4669V24.4617V24.4564V24.4512V24.4459V24.4407V24.4355V24.4303V24.4251V24.4199V24.4147V24.4095V24.4043V24.3992V24.394V24.3888V24.3837V24.3785V24.3734V24.3683V24.3631V24.358V24.3529V24.3478V24.3426V24.3375V24.3324V24.3273V24.3223V24.3172V24.3121V24.307V24.3019V24.2969V24.2918V24.2867V24.2817V24.2766V24.2716V24.2665V24.2615V24.2565V24.2514V24.2464V24.2414V24.2364V24.2313V24.2263V24.2213V24.2163V24.2113V24.2063V24.2013V24.1963V24.1913V24.1863V24.1813V24.1763V24.1713V24.1663V24.1613V24.1564V24.1514V24.1464V24.1414V24.1365V24.1315V24.1265V24.1215V24.1166V24.1116V24.1066V24.1017V24.0967V24.0917V24.0868V24.0818V24.0768V24.0719V24.0669V24.0619V24.057V24.052V24.047V24.0421V24.0371V24.0321V24.0272V24.0222V24.0172V24.0123V24.0073V24.0023V23.9974V23.9924V23.9874V23.9825V23.9775V23.9725V23.9675V23.9625V23.9576V23.9526V23.9476V23.9426V23.9376V23.9326V23.9276V23.9226V23.9176V23.9126V23.9076V23.9026V23.8976V23.8926V23.8876V23.8826V23.8775V23.8725V23.8675V23.8624V23.8574V23.8524V23.8473V23.8423V23.8372V23.8322V23.8271V23.822V23.817V23.8119V23.8068V23.8017V23.7967V23.7916V23.7865V23.7814V23.7763V23.7712V23.766V23.7609V23.7558V23.7507V23.7455V23.7404V23.7352V23.7301V23.7249V23.7198V23.7146V23.7094V23.7042V23.699V23.6938V23.6886V23.6834V23.6782V23.673V23.6677V23.6625V23.6573V23.652V23.6467V23.6415V23.6362V23.6309V23.6256V23.6203V23.615V23.6097V23.6044V23.5991V23.5937V23.5884V23.583V23.5777V23.5723V23.5669V23.5615V23.5561V23.5507V23.5453V23.5399V23.5345V23.529V23.5236V23.5181V23.5126V23.5071V23.5017V23.4962V23.4907V23.4851V23.4796V23.4741V23.4685V23.463V23.4574V23.4518V23.4462V23.4406V23.435V23.4294V23.4237V23.4181V23.4124V23.4068V23.4011V23.3954V23.3897V23.384V23.3783V23.3725V23.3668V23.361V23.3552V23.3494V23.3436V23.3378V23.332V23.3262V23.3203V23.3145V23.3086V23.3027V23.2968V23.2909V23.285V23.279V23.2731V23.2671V23.2612V23.2552V23.2492V23.2431V23.2371V23.2311V23.225V23.2189V23.2128V23.2067V23.2006V23.1945V23.1883V23.1822V23.176V23.1698V23.1636V23.1574V23.1511V23.1449V23.1386V23.1323V23.126V23.1197V23.1134V23.1071V23.1007V23.0943V23.0879V23.0815V23.0751V23.0687V23.0622V23.0557V23.0492V23.0427V23.0362V23.0297V23.0231V23.0165V23.0099V23.0033V22.9967V22.9901V22.9834V22.9767V22.97V22.9633V22.9566V22.9498V22.9431V22.9363V22.9295V22.9227V22.9158V22.909V22.9021V22.8952V22.8883V22.8814V22.8744V22.8674V22.8604V22.8534V22.8464V22.8394V22.8323V22.8252V22.8181V22.811V22.8038V22.7967V22.7895V22.7823V22.7751V22.7678V22.7605V22.7533V22.7459V22.7386V22.7313V22.7239V22.7165V22.7091V22.7017V22.6942V22.6867V22.6793V22.6717V22.6642V22.6566V22.6491V22.6415V22.6338V22.6262V22.6182V22.6103V22.6023V22.5943V22.5862V22.5782V22.5701V22.562V22.5539V22.5457V22.5376V22.5294V22.5212V22.513V22.5047V22.4965V22.4882V22.4799V22.4715V22.4632V22.4548V22.4464V22.438V22.4296V22.4212V22.4127V22.4042V22.3957V22.3872V22.3786V22.3701V22.3615V22.3529V22.3442V22.3356V22.3269V22.3183V22.3096V22.3008V22.2921V22.2833V22.2746V22.2658V22.257V22.2481V22.2393V22.2304V22.2215V22.2126V22.2037V22.1948V22.1858V22.1769V22.1679V22.1589V22.1499V22.1408V22.1318V22.1227V22.1136V22.1045V22.0954V22.0862V22.0771V22.0679V22.0587V22.0495V22.0403V22.031V22.0218V22.0125V22.0032V21.9939V21.9846V21.9752V21.9659V21.9565V21.9471V21.9377V21.9283V21.9189V21.9095V21.9V21.8905V21.8811V21.8715V21.862V21.8525V21.843V21.8334V21.8238V21.8142V21.8046V21.795V21.7854V21.7757V21.7661V21.7564V21.7467V21.737V21.7273V21.7176V21.7079V21.6981V21.6884V21.6786V21.6688V21.659V21.6492V21.6393V21.6295V21.6196V21.6098V21.5999V21.59V21.5801V21.5702V21.5603V21.5503V21.5404V21.5304V21.5204V21.5105V21.5005V21.4905V21.4804V21.4704V21.4604V21.4503V21.4403V21.4302V21.4201V21.41V21.3999V21.3898V21.3797V21.3695V21.3594V21.3492V21.3391V21.3289V21.3187V21.3085V21.2983V21.2881V21.2779V21.2676V21.2574V21.2471V21.2369V21.2266V21.2163V21.206V21.1957V21.1854V21.1751V21.1648V21.1544V21.1441V21.1337V21.1234V21.113V21.1026V21.0923V21.0819V21.0715V21.0611V21.0507V21.0402V21.0298V21.0194V21.0089V20.9985V20.988V20.9776V20.9671V20.9566V20.9461V20.9356V20.9251V20.9146V20.9041V20.8936V20.8831V20.8726V20.862V20.8515V20.8409V20.8304V20.8198V20.8093V20.7987V20.7881V20.7775V20.7669V20.7564V20.7458V20.7352V20.7245V20.7139V20.7033V20.6927V20.6821V20.6714V20.6608V20.6502V20.6395V20.6289V20.6182V20.6076V20.5969V20.5862V20.5756V20.5649V20.5542V20.5436V20.5329V20.5222V20.5115V20.5008V20.4901V20.4794V20.4687V20.458V20.4473V20.4366V20.4259V20.4152V20.4045V20.3937V20.383V20.3723V20.3616V20.3509V20.3401V20.3294V20.3187V20.3079V20.2972V20.2865V20.2757V20.265V20.2542V20.2435V20.2328V20.222V20.2113V20.2005V20.1898V20.179V20.1683V20.1575V20.1468V20.136V20.1253V20.1145V20.1038V20.0931V20.0823V20.0716V20.0608V20.0501V20.0393V20.0286V20.0178V20.0071V19.9963V19.9856V19.9749V19.9641V19.9534V19.9426V19.9319V19.9212V19.9104V19.8997V19.889V19.8783V19.8675V19.8568V19.8461V19.8354V19.8247V19.8139V19.8032V19.7925V19.7818V19.7711V19.7604V19.7497V19.739V19.7283V19.7176V19.7069V19.6963V19.6856V19.6749V19.6642V19.6536V19.6429V19.6322V19.6216V19.6109V19.6003V19.5896V19.579V19.5684V19.5577V19.5471V19.5365V19.5258V19.5152V19.5046V19.494V19.4834V19.4728V19.4622V19.4517V19.4411V19.4305V19.4199V19.4094V19.3988V19.3883V19.3777V19.3672V19.3567V19.3461V19.3356V19.3251V19.3146V19.3041V19.2936V19.2831V19.2726V19.2621V19.2517V19.2412V19.2308V19.2203V19.2099V19.1995V19.189V19.1786V19.1682V19.1578V19.1474V19.137V19.1266V19.1163V19.1059V19.0956V19.0852V19.0749V19.0646V19.0542V19.0439V19.0336V19.0233V19.013V19.0028V18.9925V18.9822V18.972V18.9618V18.9515V18.9413V18.9311V18.9209V18.9107V18.9005V18.8904V18.8802V18.87V18.8599V18.8498V18.8397V18.8295V18.8194V18.8094V18.7993V18.7892V18.7792V18.7691V18.7591V18.749V18.739V18.729V18.719V18.7091V18.6991V18.6891V18.6792V18.6693V18.6594V18.6494V18.6395V18.6297V18.6198V18.6099V18.6001V18.5903V18.5804V18.5706V18.5608V18.551V18.5413V18.5315V18.5218V18.512V18.5023V18.4926V18.4829V18.4733V18.4636V18.4539V18.4443V18.4347V18.4251V18.4155V18.4059V18.3963V18.3868V18.3773V18.3677V18.3582V18.3487V18.3392V18.3298V18.3203V18.3109V18.3015V18.2921V18.2827V18.2733V18.264V18.2546V18.2453V18.236V18.2267V18.2174V18.2081V18.1989V18.1897V18.1804V18.1712V18.1621V18.1529V18.1438V18.1346V18.1255V18.1164V18.1073V18.0983V18.0892V18.0802V18.0712V18.0622V18.0532V18.0442V18.0353V18.0264V18.0174V18.0086V17.9997V17.9908V17.982V17.9732V17.9644V17.9556V17.9468V17.9381V17.9294V17.9206V17.912V17.9033V17.8946V17.886V17.8774V17.8688V17.8602V17.8517V17.8431V17.8346V17.8261V17.8176V17.8092V17.8007V17.7923V17.7839V17.7756V17.7672V17.7589V17.7505V17.7422V17.734V17.7257V17.7175V17.7093V17.7011V17.6929V17.6848V17.6766V17.6685V17.6604V17.6524V17.6443V17.6363V17.6283V17.6203V17.6124V17.6044V17.594V17.5836V17.5732V17.5628V17.5524V17.542V17.5316V17.5211V17.5107V17.5003V17.4899V17.4795V17.4691V17.4586V17.4482V17.4378V17.4274V17.4169V17.4065V17.3961V17.3857V17.3752V17.3648V17.3544V17.3439V17.3335V17.3231V17.3126V17.3022V17.2918V17.2813V17.2709V17.2604V17.25V17.2395V17.2291V17.2187V17.2082V17.1978V17.1873V17.1769V17.1664V17.156V17.1455V17.1351V17.1246V17.1141V17.1037V17.0932V17.0828V17.0723V17.0618V17.0514V17.0409V17.0305V17.02V17.0095V16.999V16.9886V16.9781V16.9676V16.9572V16.9467V16.9362V16.9257V16.9152V16.9048V16.8943V16.8838V16.8733V16.8628V16.8523V16.8419V16.8314V16.8209V16.8104V16.7999V16.7894V16.7789V16.7684V16.7579V16.7474V16.7369V16.7264V16.7159V16.7054V16.6949V16.6844V16.6739V16.6634V16.6528V16.6423V16.6318V16.6213V16.6108V16.6003V16.5897V16.5792V16.5687V16.5582V16.5477V16.5371V16.5266V16.5161V16.5055V16.495V16.4845V16.4739V16.4634V16.4529V16.4423V16.4318V16.4212V16.4107V16.4001V16.3896V16.379V16.3685V16.3579V16.3474V16.3368V16.3263V16.3157V16.3052V16.2946V16.284V16.2735V16.2629V16.2523V16.2418V16.2312V16.2206V16.2101V16.1995V16.1889V16.1783V16.1677V16.1572V16.1466V16.136V16.1254V16.1148V16.1042V16.0936V16.0831V16.0725V16.0619V16.0513V16.0407V16.0301V16.0195V16.0089V15.9983V15.9876V15.977V15.9664V15.9558V15.9452V15.9346V15.924V15.9133V15.9027V15.8921V15.8815V15.8708V15.8602V15.8496V15.839V15.8283V15.8177V15.8071V15.7964V15.7858V15.7751V15.7645V15.7538V15.7432V15.7325V15.7219V15.7112V15.7006V15.6899V15.6793V15.6686V15.658V15.6473V15.6366V15.626V15.6153V15.6046V15.5939V15.5833V15.5726V15.5619V15.5512V15.5405V15.5299V15.5192V15.5085V15.4978V15.4871V15.4764V15.4657V15.455V15.4443V15.4336V15.4229V15.4122V15.4015V15.3908V15.3801V15.3694V15.3587V15.3479V15.3372V15.3265V15.3158V15.3051V15.2943V15.2836V15.2729V15.2621V15.2514V15.2407V15.2299V15.2192V15.2084V15.1977V15.1869V15.1762V15.1654V15.1547V15.1439V15.1332V15.1224V15.1117V15.1009V15.0901V15.0794V15.0686V15.0578V15.047V15.0363V15.0255V15.0147V15.0039V14.9931V14.9824V14.9716V14.9608V14.95V14.9392V14.9284V14.9176V14.9068V14.896V14.8852V14.8744V14.8636V14.8527V14.8419V14.8311V14.8203V14.8095V14.7986V14.7878V14.777V14.7662V14.7553V14.7445V14.7337V14.7228V14.712V14.7011V14.6903V14.6794V14.6686V14.6577V14.6469V14.636V14.6252V14.6143V14.6034V14.5926V14.5817V14.5708V14.56V14.5491V14.5382V14.5273V14.5164V14.5055V14.4947V14.4838V14.4729V14.462V14.4511V14.4402V14.4293V14.4184V14.4075V14.3966V14.3856V14.3747V14.3638V14.3529V14.342V14.3311V14.3201V14.3092V14.2983V14.2873V14.2764V14.2655V14.2545V14.2436V14.2326V14.2217V14.2107V14.1998V14.1888V14.1779V14.1669V14.1559V14.145V14.134V14.123V14.1121V14.1011V14.0901V14.0791V14.0681V14.0571V14.0462V14.0352V14.0242V14.0132V14.0022V13.9912V13.9802V13.9692V13.9582V13.9471V13.9361V13.9251V13.9141V13.9031V13.892V13.881V13.87V13.859V13.8479V13.8369V13.8258V13.8148V13.8037V13.7927V13.7816V13.7706V13.7595V13.7485V13.7374V13.7263V13.7153V13.7042V13.6931V13.6821V13.671V13.6599V13.6488V13.6377V13.6266V13.6155V13.6044V13.5934V13.5822V13.5711V13.56V13.5489V13.5378V13.5267V13.5156V13.5045V13.4933V13.4822V13.4711V13.46V13.4488V13.4377V13.4265V13.4154V13.4043V13.3931V13.382V13.3708V13.3596V13.3485V13.3373V13.3262V13.315V13.3038V13.2926V13.2815V13.2703V13.2591V13.2479V13.2367V13.2255V13.2143V13.2031V13.1919V13.1807V13.1695V13.1583V13.1471V13.1359V13.1247V13.1135V13.1022V13.091V13.0798V13.0685V13.0573V13.0461V13.0348V13.0236V13.0123V13.0011V12.9898V12.9786V12.9673V12.956V12.9448V12.9335V12.9222V12.911V12.8997V12.8884V12.8771V12.8658V12.8545V12.8432V12.8319V12.8206V12.8093V12.798V12.7867V12.7754V12.7641V12.7528V12.7414V12.7301V12.7188V12.7075V12.6961V12.6848V12.6734V12.6621V12.6508V12.6394V12.628V12.6167V12.6053V12.594V12.5826V12.5712V12.5599V12.5485V12.5371V12.5257V12.5143V12.5029V12.4915V12.4802V12.4688V12.4574V12.4459V12.4345V12.4231V12.4117V12.4003V12.3889V12.3774V12.366V12.3546V12.3431V12.3317V12.3203V12.3088V12.2974V12.2859V12.2745V12.263V12.2515V12.2401V12.2286V12.2171V12.2057V12.1942V12.1827V12.1712V12.1597V12.1482V12.1367V12.1252V12.1137V12.1022V12.0907V12.0792V12.0677V12.0562V12.0447V12.0343V12.024V12.0136V12.0033V11.9929V11.9825V11.9722V11.9618V11.9514V11.9411V11.9307V11.9203V11.9099V11.8996V11.8892V11.8788V11.8684V11.858V11.8476V11.8372V11.8268V11.8164V11.806V11.7956V11.7852V11.7748V11.7643V11.7539V11.7435V11.7331V11.7226V11.7122V11.7018V11.6913V11.6809V11.6704V11.66V11.6496V11.6391V11.6286V11.6182V11.6077V11.5973V11.5868V11.5763V11.5658V11.5554V11.5449V11.5344V11.5239V11.5134V11.5029V11.4924V11.4819V11.4714V11.4609V11.4504V11.4399V11.4294V11.4189V11.4084V11.3979V11.3873V11.3768V11.3663V11.3557V11.3452V11.3347V11.3241V11.3136V11.303V11.2925V11.2819V11.2714V11.2608V11.2502V11.2397V11.2291V11.2185V11.208V11.1974V11.1868V11.1762V11.1656V11.155V11.1444V11.1338V11.1232V11.1126V11.102V11.0914V11.0808V11.0702V11.0596V11.049V11.0383V11.0277V11.0171V11.0064V10.9958V10.9852V10.9745V10.9639V10.9532V10.9426V10.9319V10.9213V10.9106V10.8999V10.8893V10.8786V10.8679V10.8572V10.8466V10.8359V10.8252V10.8145V10.8038V10.7931V10.7824V10.7717V10.761V10.7503V10.7396V10.7288V10.7181V10.7074V10.6967V10.6859V10.6752V10.6645V10.6537V10.643V10.6322V10.6215V10.6107V10.6V10.5892V10.5785V10.5677V10.5569V10.5462V10.5354V10.5246V10.5138V10.503V10.4923V10.4815V10.4707V10.4599V10.4491V10.4383V10.4275V10.4166V10.4058V10.395V10.3842V10.3734V10.3625V10.3517V10.3409V10.33V10.3192V10.3084V10.2975V10.2867V10.2758V10.2649V10.2541V10.2432V10.2323V10.2215V10.2106V10.1997V10.1888V10.178V10.1671V10.1562V10.1453V10.1344V10.1235V10.1126V10.1017V10.0907V10.0798V10.0689V10.058V10.0471V10.0361V10.0252V10.0143V10.0033V9.99238V9.98143V9.97048V9.95953V9.94857V9.93761V9.92665V9.91568V9.90471V9.89373V9.88275V9.87177V9.86079V9.8498V9.83881V9.82781V9.81681V9.80581V9.7948V9.78379V9.77278V9.76176V9.75074V9.73972V9.72869V9.71766V9.70662V9.69559V9.68454V9.6735V9.66245V9.6514V9.64034V9.62928V9.61822V9.60715V9.59608V9.58501V9.57393V9.56285V9.55176V9.54068V9.52958V9.51849V9.50739V9.49629V9.48518V9.47407V9.46296V9.45184V9.44072V9.42959V9.41847V9.40733V9.3962V9.38506V9.37392V9.36277V9.35162V9.34047V9.32931V9.31815V9.30698V9.29582V9.28464V9.27347V9.26229V9.25111V9.23992V9.22873V9.21753V9.20634V9.19513V9.18393V9.17272V9.16151V9.15029V9.13907V9.12785V9.11662V9.10539V9.09415V9.08291V9.07167V9.06042V9.04917V9.03792V9.02666V9.0154V9.00414V8.99287V8.98159V8.97032V8.95904V8.94775V8.93646V8.92517V8.91388V8.90258V8.89127V8.87997V8.86866V8.85734V8.84602V8.8347V8.82337V8.81204V8.80071V8.78937V8.77803V8.76669V8.75534V8.74398V8.73263V8.72127V8.7099V8.69853V8.68716V8.67578V8.6644V8.65302V8.64163V8.63024V8.61884V8.60745V8.59604V8.58463V8.57322V8.56181V8.55039V8.53897V8.52754V8.51611V8.50467V8.49323V8.48179V8.47035V8.45889V8.44744V8.43598V8.42452V8.41305V8.40158V8.39011V8.37863V8.36715V8.35566V8.34417V8.33268V8.32118V8.30968V8.29817V8.28666V8.27515V8.26363V8.25211V8.24058V8.22905V8.21752V8.20598V8.19444V8.18289V8.17134V8.15978V8.14823V8.13666V8.1251V8.11353V8.10195V8.09037V8.07879V8.0672V8.05561V8.04402V8.03242V8.02082V8.00921V7.9976V7.98598V7.97436V7.96274V7.95111V7.93948V7.92784V7.9162V7.90456V7.89291V7.88126V7.8696V7.85794V7.84628V7.83461V7.82294V7.81126V7.79958V7.78789V7.7762V7.76451V7.75281V7.74111V7.7294V7.71769V7.70598V7.69426V7.68254V7.67081V7.65908V7.64734V7.6356V7.62386V7.61211V7.60036V7.5886V7.57684V7.56508V7.55331V7.54154V7.52976V7.51798V7.50619V7.4944V7.48261V7.47081V7.459V7.4472V7.43539V7.42357V7.41175V7.39993V7.3881V7.37626V7.36443V7.35259V7.34074V7.32889V7.31704V7.30518V7.29331V7.28145V7.26958V7.2577V7.24582V7.23393V7.22205V7.21015V7.19826V7.18635V7.17445V7.16254V7.15062V7.1387V7.12678V7.11485V7.10292V7.09098V7.07904V7.0671V7.05515V7.04319V7.03124V7.01927V7.00731V6.99533V6.98336V6.97138V6.95939V6.9474V6.93541V6.92341V6.91141V6.8994V6.88739V6.87538V6.86336V6.85133V6.8393V6.82727V6.81523V6.80319V6.79114V6.77909V6.76704V6.75498V6.74291V6.73084V6.71877V6.70669V6.69461V6.68252V6.67043V6.65834V6.64624V6.63413V6.62202V6.60991V6.59779V6.58567V6.57354V6.56141V6.54927V6.53713V6.52499V6.51284V6.50068V6.48852V6.47636V6.46419V6.45202V6.43984V6.42766V6.41547V6.40328V6.39109V6.37889V6.36668V6.35447V6.34226V6.33004V6.31782V6.30559C17.0809 5.98097 16.9234 5.67654 16.6583 5.48911C15.874 4.93449 15.0464 4.50499 14.1921 4.20502V3ZM13.3406 6.02858C11.9397 5.57902 10.483 5.57902 9.08216 6.02858C8.49308 6.21762 7.90974 6.48753 7.3418 6.84124V10.2024C9.64964 9.09796 12.6054 9.08529 15.0809 10.2592V10.2541V10.2432V10.2323V10.2215V10.2106V10.1997V10.1888V10.178V10.1671V10.1562V10.1453V10.1344V10.1235V10.1126V10.1017V10.0907V10.0798V10.0689V10.058V10.0471V10.0361V10.0252V10.0143V10.0033V9.99238V9.98143V9.97048V9.95953V9.94857V9.93761V9.92665V9.91568V9.90471V9.89373V9.88275V9.87177V9.86079V9.8498V9.83881V9.82781V9.81681V9.80581V9.7948V9.78379V9.77278V9.76176V9.75074V9.73972V9.72869V9.71766V9.70662V9.69559V9.68454V9.6735V9.66245V9.6514V9.64034V9.62928V9.61822V9.60715V9.59608V9.58501V9.57393V9.56285V9.55176V9.54068V9.52958V9.51849V9.50739V9.49629V9.48518V9.47407V9.46296V9.45184V9.44072V9.42959V9.41847V9.40733V9.3962V9.38506V9.37392V9.36277V9.35162V9.34047V9.32931V9.31815V9.30698V9.29582V9.28464V9.27347V9.26229V9.25111V9.23992V9.22873V9.21753V9.20634V9.19513V9.18393V9.17272V9.16151V9.15029V9.13907V9.12785V9.11662V9.10539V9.09415V9.08291V9.07167V9.06042V9.04917V9.03792V9.02666V9.0154V9.00414V8.99287V8.98159V8.97032V8.95904V8.94775V8.93646V8.92517V8.91388V8.90258V8.89127V8.87997V8.86866V8.85734V8.84602V8.8347V8.82337V8.81204V8.80071V8.78937V8.77803V8.76669V8.75534V8.74398V8.73263V8.72127V8.7099V8.69853V8.68716V8.67578V8.6644V8.65302V8.64163V8.63024V8.61884V8.60745V8.59604V8.58463V8.57322V8.56181V8.55039V8.53897V8.52754V8.51611V8.50467V8.49323V8.48179V8.47035V8.45889V8.44744V8.43598V8.42452V8.41305V8.40158V8.39011V8.37863V8.36715V8.35566V8.34417V8.33268V8.32118V8.30968V8.29817V8.28666V8.27515V8.26363V8.25211V8.24058V8.22905V8.21752V8.20598V8.19444V8.18289V8.17134V8.15978V8.14823V8.13666V8.1251V8.11353V8.10195V8.09037V8.07879V8.0672V8.05561V8.04402V8.03242V8.02082V8.00921V7.9976V7.98598V7.97436V7.96274V7.95111V7.93948V7.92784V7.9162V7.90456V7.89291V7.88126V7.8696V7.85794V7.84628V7.83461V7.82294V7.81126V7.79958V7.78789V7.7762V7.76451V7.75281V7.74111V7.7294V7.71769V7.70598V7.69426V7.68254V7.67081V7.65908V7.64734V7.6356V7.62386V7.61211V7.60036V7.5886V7.57684V7.56508V7.55331V7.54154V7.52976V7.51798V7.50619V7.4944V7.48261V7.47081V7.459V7.4472V7.43539V7.42357V7.41175V7.39993V7.3881V7.37626V7.36443V7.35259V7.34074V7.32889V7.31704V7.30518V7.29331V7.28145V7.26958V7.2577V7.24582V7.23393V7.22205V7.21015V7.19826V7.18635V7.17445V7.16254V7.15062V7.1387V7.12678V7.11485V7.10292V7.09098V7.07904V7.0671V7.05515V7.04319V7.03124V7.01927V7.00731V6.99533V6.98336V6.97138V6.95939V6.9474V6.93541V6.92341V6.91141V6.8994V6.88739V6.87538V6.86336V6.85133V6.84124C14.513 6.48753 13.9296 6.21763 13.3406 6.02858ZM15.0809 12.5528C12.6679 10.9286 9.34548 11.0505 7.3418 12.5219V15.7897C8.5319 15.2454 9.89261 14.9903 11.2114 14.9903C12.5301 14.9903 13.8908 15.2454 15.0809 15.7897V15.7858V15.7751V15.7645V15.7538V15.7432V15.7325V15.7219V15.7112V15.7006V15.6899V15.6793V15.6686V15.658V15.6473V15.6366V15.626V15.6153V15.6046V15.5939V15.5833V15.5726V15.5619V15.5512V15.5405V15.5299V15.5192V15.5085V15.4978V15.4871V15.4764V15.4657V15.455V15.4443V15.4336V15.4229V15.4122V15.4015V15.3908V15.3801V15.3694V15.3587V15.3479V15.3372V15.3265V15.3158V15.3051V15.2943V15.2836V15.2729V15.2621V15.2514V15.2407V15.2299V15.2192V15.2084V15.1977V15.1869V15.1762V15.1654V15.1547V15.1439V15.1332V15.1224V15.1117V15.1009V15.0901V15.0794V15.0686V15.0578V15.047V15.0363V15.0255V15.0147V15.0039V14.9931V14.9824V14.9716V14.9608V14.95V14.9392V14.9284V14.9176V14.9068V14.896V14.8852V14.8744V14.8636V14.8527V14.8419V14.8311V14.8203V14.8095V14.7986V14.7878V14.777V14.7662V14.7553V14.7445V14.7337V14.7228V14.712V14.7011V14.6903V14.6794V14.6686V14.6577V14.6469V14.636V14.6252V14.6143V14.6034V14.5926V14.5817V14.5708V14.56V14.5491V14.5382V14.5273V14.5164V14.5055V14.4947V14.4838V14.4729V14.462V14.4511V14.4402V14.4293V14.4184V14.4075V14.3966V14.3856V14.3747V14.3638V14.3529V14.342V14.3311V14.3201V14.3092V14.2983V14.2873V14.2764V14.2655V14.2545V14.2436V14.2326V14.2217V14.2107V14.1998V14.1888V14.1779V14.1669V14.1559V14.145V14.134V14.123V14.1121V14.1011V14.0901V14.0791V14.0681V14.0571V14.0462V14.0352V14.0242V14.0132V14.0022V13.9912V13.9802V13.9692V13.9582V13.9471V13.9361V13.9251V13.9141V13.9031V13.892V13.881V13.87V13.859V13.8479V13.8369V13.8258V13.8148V13.8037V13.7927V13.7816V13.7706V13.7595V13.7485V13.7374V13.7263V13.7153V13.7042V13.6931V13.6821V13.671V13.6599V13.6488V13.6377V13.6266V13.6155V13.6044V13.5934V13.5822V13.5711V13.56V13.5489V13.5378V13.5267V13.5156V13.5045V13.4933V13.4822V13.4711V13.46V13.4488V13.4377V13.4265V13.4154V13.4043V13.3931V13.382V13.3708V13.3596V13.3485V13.3373V13.3262V13.315V13.3038V13.2926V13.2815V13.2703V13.2591V13.2479V13.2367V13.2255V13.2143V13.2031V13.1919V13.1807V13.1695V13.1583V13.1471V13.1359V13.1247V13.1135V13.1022V13.091V13.0798V13.0685V13.0573V13.0461V13.0348V13.0236V13.0123V13.0011V12.9898V12.9786V12.9673V12.956V12.9448V12.9335V12.9222V12.911V12.8997V12.8884V12.8771V12.8658V12.8545V12.8432V12.8319V12.8206V12.8093V12.798V12.7867V12.7754V12.7641V12.7528V12.7414V12.7301V12.7188V12.7075V12.6961V12.6848V12.6734V12.6621V12.6508V12.6394V12.628V12.6167V12.6053V12.594V12.5826V12.5712V12.5599V12.5528ZM15.0809 18.0858C14.0966 17.3833 12.6921 16.9903 11.2114 16.9903C9.73063 16.9903 8.32615 17.3833 7.3418 18.0858V20.9236C8.53351 20.4385 9.89594 20.2138 11.2114 20.2138C12.5268 20.2138 13.8892 20.4385 15.0809 20.9236V20.9146V20.9041V20.8936V20.8831V20.8726V20.862V20.8515V20.8409V20.8304V20.8198V20.8093V20.7987V20.7881V20.7775V20.7669V20.7564V20.7458V20.7352V20.7245V20.7139V20.7033V20.6927V20.6821V20.6714V20.6608V20.6502V20.6395V20.6289V20.6182V20.6076V20.5969V20.5862V20.5756V20.5649V20.5542V20.5436V20.5329V20.5222V20.5115V20.5008V20.4901V20.4794V20.4687V20.458V20.4473V20.4366V20.4259V20.4152V20.4045V20.3937V20.383V20.3723V20.3616V20.3509V20.3401V20.3294V20.3187V20.3079V20.2972V20.2865V20.2757V20.265V20.2542V20.2435V20.2328V20.222V20.2113V20.2005V20.1898V20.179V20.1683V20.1575V20.1468V20.136V20.1253V20.1145V20.1038V20.0931V20.0823V20.0716V20.0608V20.0501V20.0393V20.0286V20.0178V20.0071V19.9963V19.9856V19.9749V19.9641V19.9534V19.9426V19.9319V19.9212V19.9104V19.8997V19.889V19.8783V19.8675V19.8568V19.8461V19.8354V19.8247V19.8139V19.8032V19.7925V19.7818V19.7711V19.7604V19.7497V19.739V19.7283V19.7176V19.7069V19.6963V19.6856V19.6749V19.6642V19.6536V19.6429V19.6322V19.6216V19.6109V19.6003V19.5896V19.579V19.5684V19.5577V19.5471V19.5365V19.5258V19.5152V19.5046V19.494V19.4834V19.4728V19.4622V19.4517V19.4411V19.4305V19.4199V19.4094V19.3988V19.3883V19.3777V19.3672V19.3567V19.3461V19.3356V19.3251V19.3146V19.3041V19.2936V19.2831V19.2726V19.2621V19.2517V19.2412V19.2308V19.2203V19.2099V19.1995V19.189V19.1786V19.1682V19.1578V19.1474V19.137V19.1266V19.1163V19.1059V19.0956V19.0852V19.0749V19.0646V19.0542V19.0439V19.0336V19.0233V19.013V19.0028V18.9925V18.9822V18.972V18.9618V18.9515V18.9413V18.9311V18.9209V18.9107V18.9005V18.8904V18.8802V18.87V18.8599V18.8498V18.8397V18.8295V18.8194V18.8094V18.7993V18.7892V18.7792V18.7691V18.7591V18.749V18.739V18.729V18.719V18.7091V18.6991V18.6891V18.6792V18.6693V18.6594V18.6494V18.6395V18.6297V18.6198V18.6099V18.6001V18.5903V18.5804V18.5706V18.5608V18.551V18.5413V18.5315V18.5218V18.512V18.5023V18.4926V18.4829V18.4733V18.4636V18.4539V18.4443V18.4347V18.4251V18.4155V18.4059V18.3963V18.3868V18.3773V18.3677V18.3582V18.3487V18.3392V18.3298V18.3203V18.3109V18.3015V18.2921V18.2827V18.2733V18.264V18.2546V18.2453V18.236V18.2267V18.2174V18.2081V18.1989V18.1897V18.1804V18.1712V18.1621V18.1529V18.1438V18.1346V18.1255V18.1164V18.1073V18.0983V18.0892V18.0858ZM15.0809 23.1517C14.0938 22.5533 12.6929 22.2138 11.2114 22.2138C9.7298 22.2138 8.32892 22.5533 7.3418 23.1517V25.2698L10.6483 28.6797H11.7744L15.0809 25.2698V25.2656V25.2586V25.2516V25.2446V25.2377V25.2307V25.2238V25.2169V25.21V25.2032V25.1963V25.1895V25.1827V25.1759V25.1692V25.1624V25.1557V25.149V25.1423V25.1356V25.1289V25.1223V25.1157V25.1091V25.1025V25.0959V25.0893V25.0828V25.0763V25.0698V25.0633V25.0568V25.0503V25.0439V25.0375V25.0311V25.0247V25.0183V25.0119V25.0056V24.9993V24.9929V24.9866V24.9804V24.9741V24.9678V24.9616V24.9554V24.9492V24.943V24.9368V24.9306V24.9245V24.9184V24.9122V24.9061V24.9V24.894V24.8879V24.8819V24.8758V24.8698V24.8638V24.8578V24.8518V24.8459V24.8399V24.834V24.8281V24.8221V24.8162V24.8104V24.8045V24.7986V24.7928V24.7869V24.7811V24.7753V24.7695V24.7637V24.7579V24.7522V24.7464V24.7407V24.735V24.7293V24.7236V24.7179V24.7122V24.7065V24.7009V24.6952V24.6896V24.6839V24.6783V24.6727V24.6671V24.6616V24.656V24.6504V24.6449V24.6393V24.6338V24.6283V24.6228V24.6173V24.6118V24.6063V24.6008V24.5954V24.5899V24.5845V24.579V24.5736V24.5682V24.5628V24.5574V24.552V24.5466V24.5413V24.5359V24.5305V24.5252V24.5199V24.5145V24.5092V24.5039V24.4986V24.4933V24.488V24.4827V24.4774V24.4722V24.4669V24.4617V24.4564V24.4512V24.4459V24.4407V24.4355V24.4303V24.4251V24.4199V24.4147V24.4095V24.4043V24.3992V24.394V24.3888V24.3837V24.3785V24.3734V24.3683V24.3631V24.358V24.3529V24.3478V24.3426V24.3375V24.3324V24.3273V24.3223V24.3172V24.3121V24.307V24.3019V24.2969V24.2918V24.2867V24.2817V24.2766V24.2716V24.2665V24.2615V24.2565V24.2514V24.2464V24.2414V24.2364V24.2313V24.2263V24.2213V24.2163V24.2113V24.2063V24.2013V24.1963V24.1913V24.1863V24.1813V24.1763V24.1713V24.1663V24.1613V24.1564V24.1514V24.1464V24.1414V24.1365V24.1315V24.1265V24.1215V24.1166V24.1116V24.1066V24.1017V24.0967V24.0917V24.0868V24.0818V24.0768V24.0719V24.0669V24.0619V24.057V24.052V24.047V24.0421V24.0371V24.0321V24.0272V24.0222V24.0172V24.0123V24.0073V24.0023V23.9974V23.9924V23.9874V23.9825V23.9775V23.9725V23.9675V23.9625V23.9576V23.9526V23.9476V23.9426V23.9376V23.9326V23.9276V23.9226V23.9176V23.9126V23.9076V23.9026V23.8976V23.8926V23.8876V23.8826V23.8775V23.8725V23.8675V23.8624V23.8574V23.8524V23.8473V23.8423V23.8372V23.8322V23.8271V23.822V23.817V23.8119V23.8068V23.8017V23.7967V23.7916V23.7865V23.7814V23.7763V23.7712V23.766V23.7609V23.7558V23.7507V23.7455V23.7404V23.7352V23.7301V23.7249V23.7198V23.7146V23.7094V23.7042V23.699V23.6938V23.6886V23.6834V23.6782V23.673V23.6677V23.6625V23.6573V23.652V23.6467V23.6415V23.6362V23.6309V23.6256V23.6203V23.615V23.6097V23.6044V23.5991V23.5937V23.5884V23.583V23.5777V23.5723V23.5669V23.5615V23.5561V23.5507V23.5453V23.5399V23.5345V23.529V23.5236V23.5181V23.5126V23.5071V23.5017V23.4962V23.4907V23.4851V23.4796V23.4741V23.4685V23.463V23.4574V23.4518V23.4462V23.4406V23.435V23.4294V23.4237V23.4181V23.4124V23.4068V23.4011V23.3954V23.3897V23.384V23.3783V23.3725V23.3668V23.361V23.3552V23.3494V23.3436V23.3378V23.332V23.3262V23.3203V23.3145V23.3086V23.3027V23.2968V23.2909V23.285V23.279V23.2731V23.2671V23.2612V23.2552V23.2492V23.2431V23.2371V23.2311V23.225V23.2189V23.2128V23.2067V23.2006V23.1945V23.1883V23.1822V23.176V23.1698V23.1636V23.1574V23.1517ZM9.99219 31.2344H12.427V33.8992H9.99219V31.2344Z" fill="#4C779D"/>
</svg>
