<svg width="57" height="24" viewBox="0 0 57 24" fill="none" xmlns="http://www.w3.org/2000/svg">
<path d="M0.710688 0.248V17H9.59069V14.336H4.07069V0.248H0.710688ZM24.5663 10.352C24.5663 6.152 21.5663 3.488 17.7263 3.488C13.8863 3.488 10.8863 6.152 10.8863 10.352C10.8863 14.528 13.7903 17.216 17.6303 17.216C21.4943 17.216 24.5663 14.528 24.5663 10.352ZM14.2943 10.352C14.2943 7.688 15.9023 6.416 17.6783 6.416C19.4543 6.416 21.1103 7.688 21.1103 10.352C21.1103 12.992 19.4063 14.288 17.6303 14.288C15.8303 14.288 14.2943 12.992 14.2943 10.352ZM26.167 10.304C26.167 14.456 28.855 17.216 32.239 17.216C34.327 17.216 35.839 16.184 36.631 15.032V17.096C36.631 19.568 35.191 20.624 33.343 20.624C31.663 20.624 30.415 19.832 30.079 18.632H26.743C27.079 21.68 29.695 23.552 33.439 23.552C37.807 23.552 40.015 20.696 40.015 17.096V3.704H36.631V5.6C35.839 4.448 34.327 3.488 32.239 3.488C28.855 3.488 26.167 6.152 26.167 10.304ZM36.631 10.352C36.631 12.872 34.951 14.264 33.103 14.264C31.303 14.264 29.599 12.824 29.599 10.304C29.599 7.784 31.303 6.44 33.103 6.44C34.951 6.44 36.631 7.832 36.631 10.352ZM56.1366 10.352C56.1366 6.152 53.1366 3.488 49.2966 3.488C45.4566 3.488 42.4566 6.152 42.4566 10.352C42.4566 14.528 45.3606 17.216 49.2006 17.216C53.0646 17.216 56.1366 14.528 56.1366 10.352ZM45.8646 10.352C45.8646 7.688 47.4726 6.416 49.2486 6.416C51.0246 6.416 52.6806 7.688 52.6806 10.352C52.6806 12.992 50.9766 14.288 49.2006 14.288C47.4006 14.288 45.8646 12.992 45.8646 10.352Z" fill="white"/>
</svg>
