<svg width="328" height="73" viewBox="0 0 328 73" fill="none" xmlns="http://www.w3.org/2000/svg">
<path fill-rule="evenodd" clip-rule="evenodd" d="M75.1062 0H75.1269C90.1954 0 99.8468 9.61594 99.8472 21.6112V21.7121V51.2864V51.3869C99.8472 63.3818 90.1958 72.9981 75.1273 72.9981H75.1066V72.9977C73.6494 72.9965 72.2315 72.9161 70.8735 72.7364C58.172 71.1229 50.3867 62.2127 50.3867 51.2864V45.9239C52.6335 51.1848 58.0116 54.0475 62.3048 54.0475C66.037 54.0475 69.3682 52.1326 71.6958 49.3104V53.1609C71.6958 55.459 72.9395 56.8102 75.1269 56.8102C77.2941 56.8102 78.5584 55.4587 78.5584 53.1609V19.8372C78.5584 17.5387 77.2937 16.1883 75.1269 16.1883C74.6857 16.1883 74.2839 16.2491 73.9231 16.3496C72.6384 10.5634 69.8094 5.32209 64.7535 1.71322C66.6387 1.02825 68.686 0.544528 70.8731 0.262064C72.2312 0.0816007 73.649 0.000784622 75.1062 0.000392311V0ZM66.932 32.4138C67.0673 32.6907 67.2042 32.9706 67.3378 33.254L67.3485 33.2768C67.9849 34.6277 68.927 36.6276 68.9977 38.1085C69.1762 41.8649 66.0984 45.713 62.2487 45.713C58.4006 45.713 52.9109 41.3992 56.5302 33.9366C59.0214 28.7985 62.2487 20.9249 62.2487 20.9249C62.4098 21.355 62.5699 21.7844 62.7297 22.2129C64.0101 25.6474 65.2716 29.0309 66.8907 32.3293L66.932 32.4138Z" fill="#76859B"/>
<path fill-rule="evenodd" clip-rule="evenodd" d="M48.099 0.0200079C48.5207 0 48.9416 0 49.3828 0C67.3619 0 72.1578 12.2166 71.5358 23.809H53.0151C53.2365 18.3857 52.5137 15.2413 48.9627 15.2413H48.0993H46.3937H24.4821C24.1811 15.2413 23.9007 15.2609 23.6196 15.3213C21.9136 15.6846 20.7504 17.1157 20.7504 19.636C20.7504 23.3074 24.9787 25.8115 30.0578 28.8195C37.6953 33.3425 47.2563 39.0047 47.2563 51.4881C47.2563 62.4543 40.5952 72.9981 24.3822 72.9981C6.40308 72.9981 -0.760213 65.0554 0.0633017 48.2421H18.6633C18.3622 55.459 20.3283 57.7576 23.5591 57.7576C26.6688 57.7576 27.9133 56.2853 27.9133 53.3625C27.9133 49.5275 23.4956 46.7876 18.2672 43.545C10.6888 38.845 1.40732 33.0886 1.40732 21.4096C1.40732 10.0192 8.10907 0.524128 23.6196 0.0200079C24.0413 0 24.4626 0 24.9039 0C25.1647 0 25.4251 0 25.6856 0.0200079H48.099ZM180.072 73C164.066 73 155.645 64.5414 155.645 52.113V1.67274H176.747V52.3236C176.747 54.621 177.993 56.082 180.072 56.082C182.359 56.082 183.503 54.621 183.503 52.3236V1.67274H203.877V52.113C203.877 64.5418 196.287 73 180.072 73ZM125.619 47.5187H132.999C143.705 47.5187 151.604 40.7317 151.604 29.2429V19.949C151.604 8.46177 143.705 1.67361 132.999 1.67361H104.725V71.2261H125.619V47.5187ZM128.736 16.5027C130.713 16.5027 131.958 17.5474 131.958 19.9487V30.496C131.958 32.8993 130.712 33.8381 128.736 33.8381H125.619V16.5027H128.736ZM255.854 33.6292V71.2256H275.916V1.67274H249.931L244.836 26.2149L243.07 35.6135L241.199 26.2149L236 1.67274H208.975V71.2256H226.333V33.6292L228.725 45.2208L233.921 71.2256H247.54L253.255 45.2208L255.854 33.6292ZM302.016 47.5187H309.395C320.102 47.5187 328 40.7317 328 29.2429V19.949C328 8.46177 320.102 1.67361 309.395 1.67361H281.121V71.2261H302.016V47.5187ZM305.133 16.5027C307.108 16.5027 308.354 17.5474 308.354 19.9487V30.496C308.354 32.8993 307.108 33.8381 305.133 33.8381H302.016V16.5027H305.133Z" fill="#466EC6"/>
</svg>
