<svg width="36" height="36" viewBox="0 0 36 36" fill="none" xmlns="http://www.w3.org/2000/svg">
<path d="M26.3739 6.78672H25.2836C25.0146 6.78672 24.7965 7.00518 24.7965 7.27422C24.7965 7.54326 25.0146 7.76172 25.2836 7.76172H26.3739C26.6429 7.76172 26.861 7.54326 26.861 7.27422C26.861 7.00518 26.6429 6.78672 26.3739 6.78672Z" fill="#4C779D" stroke="#4C779D" stroke-width="0.2"/>
<path d="M10.2008 6.78672H9.11371C8.84469 6.78672 8.62656 7.00518 8.62656 7.27422C8.62656 7.54326 8.84469 7.76172 9.11371 7.76172H10.2039C10.473 7.76172 10.6911 7.54326 10.6911 7.27422C10.6911 7.00466 10.4724 6.78672 10.2008 6.78672Z" fill="#4C779D" stroke="#4C779D" stroke-width="0.2"/>
<path d="M12.0143 20.0281C12.0143 20.2972 12.2324 20.5156 12.5014 20.5156H22.9824C23.2514 20.5156 23.4695 20.2972 23.4695 20.0281C23.4695 19.7591 23.2514 19.5406 22.9824 19.5406H12.5014C12.2324 19.5406 12.0143 19.7591 12.0143 20.0281Z" fill="#4C779D" stroke="#4C779D" stroke-width="0.2"/>
<path d="M22.9824 20.8062H12.5014C12.2324 20.8062 12.0143 21.0247 12.0143 21.2937C12.0143 21.5628 12.2324 21.7812 12.5014 21.7812H22.9824C23.2514 21.7812 23.4695 21.5628 23.4695 21.2937C23.4695 21.0247 23.2514 20.8062 22.9824 20.8062Z" fill="#4C779D" stroke="#4C779D" stroke-width="0.2"/>
<path d="M24.5665 17.6326L24.5665 17.6311C24.5626 17.3697 24.3517 17.1575 24.0886 17.1575H18.938H18.9367H18.9355H18.9343H18.9331H18.9319H18.9308H18.9296H18.9284H18.9272H18.9261H18.9249H18.9237H18.9226H18.9214H18.9203H18.9191H18.918H18.9169H18.9158H18.9146H18.9135H18.9124H18.9113H18.9102H18.9091H18.908H18.9069H18.9059H18.9048H18.9037H18.9026H18.9016H18.9005H18.8995H18.8984H18.8974H18.8963H18.8953H18.8943H18.8933H18.8922H18.8912H18.8902H18.8892H18.8882H18.8872H18.8862H18.8852H18.8843H18.8833H18.8823H18.8813H18.8804H18.8794H18.8785H18.8775H18.8766H18.8756H18.8747H18.8737H18.8728H18.8719H18.871H18.8701H18.8691H18.8682H18.8673H18.8664H18.8655H18.8647H18.8638H18.8629H18.862H18.8611H18.8603H18.8594H18.8586H18.8577H18.8568H18.856H18.8552H18.8543H18.8535H18.8527H18.8518H18.851H18.8502H18.8494H18.8486H18.8478H18.847H18.8462H18.8454H18.8446H18.8438H18.843H18.8422H18.8415H18.8407H18.8399H18.8392H18.8384H18.8377H18.8369H18.8362H18.8354H18.8347H18.834H18.8332H18.8325H18.8318H18.8311H18.8304H18.8297H18.829H18.8283H18.8276H18.8269H18.8262H18.8255H18.8248H18.8241H18.8235H18.8228H18.8221H18.8215H18.8208H18.8201H18.8195H18.8188H18.8182H18.8176H18.8169H18.8163H18.8157H18.815H18.8144H18.8138H18.8132H18.8126H18.812H18.8114H18.8108H18.8102H18.8096H18.809H18.8084H18.8078H18.8072H18.8066H18.8061H18.8055H18.8049H18.8044H18.8038H18.8033H18.8027H18.8022H18.8016H18.8011H18.8005H18.8H18.7995H18.7989H18.7984H18.7979H18.7974H18.7969H18.7963H18.7958H18.7953H18.7948H18.7943H18.7938H18.7933H18.7929H18.7924H18.7919H18.7914H18.7909H18.7905H18.79H18.7895H18.7891H18.7886H18.7881H18.7877H18.7872H18.7868H18.7863H18.7859H18.7855H18.785H18.7846H18.7842H18.7837H18.7833H18.7829H18.7825H18.7821H18.7817H18.7812H18.7808H18.7804H18.78H18.7796H18.7792H18.7789H18.7785H18.7781H18.7777H18.7773H18.7769H18.7766H18.7762H18.7758H18.7755H18.7751H18.7747H18.7744H18.774H18.7737H18.7733H18.773H18.7726H18.7723H18.772H18.7716H18.7713H18.771H18.7706H18.7703H18.77H18.7697H18.7693H18.769H18.7687H18.7684H18.7681H18.7678H18.7675H18.7672H18.7669H18.7666H18.7663H18.766H18.7657H18.7655H18.7652H18.7649H18.7646H18.7643H18.7641H18.7638H18.7635H18.7633H18.763H18.7628H18.7625H18.7622H18.762H18.7617H18.7615H18.7612H18.761H18.7608H18.7605H18.7603H18.76H18.7598H18.7596H18.7594H18.7591H18.7589H18.7587H18.7585H18.7582H18.758H18.7578H18.7576H18.7574H18.7572H18.757H18.7568H18.7566H18.7564H18.7562H18.756H18.7558H18.7556H18.7554H18.7552H18.7551H18.7549H18.7547H18.7545H18.7543H18.7542H18.754H18.7538H18.7537H18.7535H18.7533H18.7532H18.753H18.7528H18.7527H18.7525H18.7524H18.7522H18.7521H18.7519H18.7518H18.7516H18.7515H18.7514H18.7512H18.7511H18.7509H18.7508H18.7507H18.7505H18.7504H18.7503H18.7502H18.75H18.7499H18.7498H18.7497H18.7496H18.7494H18.7493H18.7492H18.7491H18.749H18.7489H18.7488H18.7487H18.7486H18.7485H18.7484H18.7483H18.7482H18.7481H18.748H18.7479H18.7478H18.7477H18.7476H18.7475H18.7474H18.7474H18.7473H18.7472H18.7471H18.747H18.747H18.7469H18.7468H18.7467H18.7467H18.7466H18.7465H18.7464H18.7464H18.7463H18.7462H18.7462H18.7461H18.7461H18.746H18.7459H18.7459H18.7458H18.7458H18.7457H18.7457H18.7456H18.7456H18.7455H18.7455H18.7454H18.7454H18.7453H18.7453H18.7452H18.7452H18.7451H18.7451H18.7451H18.745H18.745H18.7449H18.7449H18.7449H18.7448H18.7448H18.7448H18.7447H18.7447H18.7447H18.7446H18.7446H18.7446H18.7446H18.7445H18.7445H18.7445H18.7445H18.7444H18.7444H18.7444H18.7444H18.7444H18.7443H18.7443H18.7443H18.7443H18.7443H18.7443H18.7442H18.7442H18.7442H18.7442H18.7442H18.7442H18.7442H18.7442H18.7442H18.7442H18.7442H18.7442H18.7442H18.7441H18.7441H18.7441H18.7441H18.7441H18.7441H18.7441H18.7441H18.7441H18.7441H18.7441H18.7441H18.7441H18.7441H18.7441H18.5632H16.919H16.9186L16.7901 17.1564C16.79 17.1564 16.7899 17.1564 16.7898 17.1564C16.7085 17.1553 16.6967 17.1555 16.679 17.1562L16.6777 17.1562C16.6647 17.1567 16.6438 17.1575 16.5438 17.1575H11.3962C11.1334 17.1575 10.9215 17.3697 10.9215 17.6326V22.7259C10.9215 22.9887 11.1334 23.201 11.3962 23.201H24.0917C24.3545 23.201 24.5665 22.9887 24.5665 22.7259L24.5665 17.6326ZM19.3127 18.1077H23.617V22.2508H11.871V18.1077H16.1752H16.5438V18.1077L16.5459 18.1077C16.8317 18.1016 16.8589 18.0994 16.8861 18.0985C16.903 18.098 16.92 18.098 17 18.098H18.9985L19.3096 18.1076L19.3096 18.1077H19.3127Z" fill="#4C779D" stroke="#4C779D" stroke-width="0.2"/>
<mask id="path-6-outside-1_3633_20939" maskUnits="userSpaceOnUse" x="4" y="2" width="27" height="32" fill="black">
<rect fill="white" x="4" y="2" width="27" height="32"/>
<path d="M30.1091 10.8864H29.3565V10.0959C29.3565 9.4139 28.96 8.797 28.3437 8.5118V5.8272C28.3437 5.6195 28.1764 5.4521 27.9689 5.4521H23.862V3.3751C23.862 3.1674 23.6948 3 23.4873 3H11.9966C11.7891 3 11.6218 3.1674 11.6218 3.3751V5.4521H7.51494C7.30742 5.4521 7.14017 5.6195 7.14017 5.8272V8.487C6.49595 8.7598 6.06854 9.3984 6.06854 10.0959V10.8864H5.37476C5.16725 10.8864 5 11.0538 5 11.2615V13.4036C5 13.6113 5.16725 13.7787 5.37476 13.7787H6.07164V14.9164C6.07164 15.6139 6.49905 16.2525 7.14327 16.5253V17.26H7.35308C6.74603 17.26 6.25357 17.7529 6.25357 18.3605V21.9844C6.25357 22.592 6.74603 23.0849 7.35308 23.0849H7.14327V25.289H6.3318C6.12429 25.289 5.95704 25.4564 5.95704 25.6641V29.3531C5.95704 29.5608 6.12429 29.7282 6.3318 29.7282H7.14327V30.962C7.14327 31.1697 7.31052 31.3371 7.51803 31.3371H7.99191V32.7011C7.99191 32.9088 8.15916 33.0762 8.36667 33.0762H12.0864C12.2939 33.0762 12.4612 32.9088 12.4612 32.7011V31.3371H22.9112V32.7011C22.9112 32.9088 23.0784 33.0762 23.2859 33.0762H27.0057C27.2132 33.0762 27.3805 32.9088 27.3805 32.7011V31.3371H27.972C28.1795 31.3371 28.3468 31.1697 28.3468 30.962V29.7282H29.1583C29.3658 29.7282 29.533 29.5608 29.533 29.3531V25.6641C29.533 25.4564 29.3658 25.289 29.1583 25.289H28.3468V23.0849H28.15C28.7571 23.0849 29.2495 22.592 29.2495 21.9844V18.3605C29.2495 17.7529 28.7571 17.26 28.15 17.26H28.3468V16.5005C28.9662 16.2153 29.3596 15.6015 29.3596 14.9164V13.7787H30.1122C30.3197 13.7787 30.487 13.6113 30.487 13.4036V11.2615C30.4839 11.0538 30.3166 10.8864 30.1091 10.8864ZM29.7374 11.6335V13.0285H28.3437V11.6335H29.7374ZM28.3437 10.8864V9.417C28.514 9.5999 28.6101 9.8417 28.6101 10.0959V10.8864H28.3437ZM28.6101 13.7787V14.9164C28.6101 15.1675 28.514 15.4093 28.3437 15.5953V13.7818H28.6101V13.7787ZM23.6576 32.3229V31.334H26.6309V32.3229H23.6576ZM11.7117 31.334V32.3229H8.73834V31.334H11.7117ZM27.5942 29.7251V30.5838H7.8897V29.7251H27.5942ZM6.70347 28.978V26.0361H28.7804V28.978H6.70347ZM6.81806 10.8864V10.0959C6.81806 9.82 6.93886 9.5503 7.14017 9.3643V10.8864H6.81806ZM7.14327 11.6335V13.0285H5.74953V11.6335H7.14327ZM6.81806 13.7787H7.14017V15.648C6.93886 15.4589 6.81806 15.1923 6.81806 14.9164V13.7787ZM12.3714 5.4521V3.7471H23.1125V5.4521H12.3714ZM7.8897 8.3475V6.1992H27.5942V8.3475H7.8897ZM26.6557 15.1985C26.8694 15.1985 27.0429 15.0249 27.0429 14.811C27.0429 14.5971 26.8694 14.4235 26.6557 14.4235H22.9545C22.7408 14.4235 22.5674 14.5971 22.5674 14.811C22.5674 15.0249 22.7408 15.1985 22.9545 15.1985H23.9611L24.6735 15.9115H18.7052L17.9928 15.1985H19.591C19.8047 15.1985 19.9781 15.0249 19.9781 14.811C19.9781 14.5971 19.8047 14.4235 19.591 14.4235H15.8929C15.6792 14.4235 15.5057 14.5971 15.5057 14.811C15.5057 15.0249 15.6792 15.1985 15.8929 15.1985H16.8995L17.6119 15.9115H11.6435L10.9312 15.1985H12.5293C12.743 15.1985 12.9165 15.0249 12.9165 14.811C12.9165 14.5971 12.743 14.4235 12.5293 14.4235H8.82816C8.61445 14.4235 8.441 14.5971 8.441 14.811C8.441 15.0249 8.61445 15.1985 8.82816 15.1985H9.83475L10.5471 15.9115H7.8897V9.0977H27.5942V15.9115H25.7668L25.0545 15.1985H26.6557ZM27.5942 24.4303V25.289H7.8897V24.4303H27.5942ZM28.5 21.9813C28.5 22.1766 28.342 22.3347 28.1469 22.3347H27.7552C27.5601 22.3347 27.4021 22.1766 27.4021 21.9813V18.3605C27.4021 18.1652 27.5601 18.0071 27.7552 18.0071H28.1469C28.342 18.0071 28.5 18.1652 28.5 18.3605V21.9813ZM7 18.3605C7 18.1652 7.15796 18.0071 7.35308 18.0071H7.64692C7.84204 18.0071 8 18.1652 8 18.3605V21.9844C8 22.1797 7.84204 22.3378 7.64692 22.3378H7.35308C7.15796 22.3378 7 22.1797 7 21.9844V18.3605ZM26.6557 18.3605V21.9844C26.6557 22.592 27.1482 23.0849 27.7552 23.0849H27.5942V23.6832H7.8897V23.0849H7.64692C8.25397 23.0849 8.74643 22.592 8.74643 21.9844V18.3605C8.74643 17.7529 8.25397 17.26 7.64692 17.26H7.8897V16.6617H27.5942V17.26H27.7552C27.1482 17.2569 26.6557 17.7529 26.6557 18.3605Z"/>
</mask>
<path d="M30.1091 10.8864H29.3565V10.0959C29.3565 9.4139 28.96 8.797 28.3437 8.5118V5.8272C28.3437 5.6195 28.1764 5.4521 27.9689 5.4521H23.862V3.3751C23.862 3.1674 23.6948 3 23.4873 3H11.9966C11.7891 3 11.6218 3.1674 11.6218 3.3751V5.4521H7.51494C7.30742 5.4521 7.14017 5.6195 7.14017 5.8272V8.487C6.49595 8.7598 6.06854 9.3984 6.06854 10.0959V10.8864H5.37476C5.16725 10.8864 5 11.0538 5 11.2615V13.4036C5 13.6113 5.16725 13.7787 5.37476 13.7787H6.07164V14.9164C6.07164 15.6139 6.49905 16.2525 7.14327 16.5253V17.26H7.35308C6.74603 17.26 6.25357 17.7529 6.25357 18.3605V21.9844C6.25357 22.592 6.74603 23.0849 7.35308 23.0849H7.14327V25.289H6.3318C6.12429 25.289 5.95704 25.4564 5.95704 25.6641V29.3531C5.95704 29.5608 6.12429 29.7282 6.3318 29.7282H7.14327V30.962C7.14327 31.1697 7.31052 31.3371 7.51803 31.3371H7.99191V32.7011C7.99191 32.9088 8.15916 33.0762 8.36667 33.0762H12.0864C12.2939 33.0762 12.4612 32.9088 12.4612 32.7011V31.3371H22.9112V32.7011C22.9112 32.9088 23.0784 33.0762 23.2859 33.0762H27.0057C27.2132 33.0762 27.3805 32.9088 27.3805 32.7011V31.3371H27.972C28.1795 31.3371 28.3468 31.1697 28.3468 30.962V29.7282H29.1583C29.3658 29.7282 29.533 29.5608 29.533 29.3531V25.6641C29.533 25.4564 29.3658 25.289 29.1583 25.289H28.3468V23.0849H28.15C28.7571 23.0849 29.2495 22.592 29.2495 21.9844V18.3605C29.2495 17.7529 28.7571 17.26 28.15 17.26H28.3468V16.5005C28.9662 16.2153 29.3596 15.6015 29.3596 14.9164V13.7787H30.1122C30.3197 13.7787 30.487 13.6113 30.487 13.4036V11.2615C30.4839 11.0538 30.3166 10.8864 30.1091 10.8864ZM29.7374 11.6335V13.0285H28.3437V11.6335H29.7374ZM28.3437 10.8864V9.417C28.514 9.5999 28.6101 9.8417 28.6101 10.0959V10.8864H28.3437ZM28.6101 13.7787V14.9164C28.6101 15.1675 28.514 15.4093 28.3437 15.5953V13.7818H28.6101V13.7787ZM23.6576 32.3229V31.334H26.6309V32.3229H23.6576ZM11.7117 31.334V32.3229H8.73834V31.334H11.7117ZM27.5942 29.7251V30.5838H7.8897V29.7251H27.5942ZM6.70347 28.978V26.0361H28.7804V28.978H6.70347ZM6.81806 10.8864V10.0959C6.81806 9.82 6.93886 9.5503 7.14017 9.3643V10.8864H6.81806ZM7.14327 11.6335V13.0285H5.74953V11.6335H7.14327ZM6.81806 13.7787H7.14017V15.648C6.93886 15.4589 6.81806 15.1923 6.81806 14.9164V13.7787ZM12.3714 5.4521V3.7471H23.1125V5.4521H12.3714ZM7.8897 8.3475V6.1992H27.5942V8.3475H7.8897ZM26.6557 15.1985C26.8694 15.1985 27.0429 15.0249 27.0429 14.811C27.0429 14.5971 26.8694 14.4235 26.6557 14.4235H22.9545C22.7408 14.4235 22.5674 14.5971 22.5674 14.811C22.5674 15.0249 22.7408 15.1985 22.9545 15.1985H23.9611L24.6735 15.9115H18.7052L17.9928 15.1985H19.591C19.8047 15.1985 19.9781 15.0249 19.9781 14.811C19.9781 14.5971 19.8047 14.4235 19.591 14.4235H15.8929C15.6792 14.4235 15.5057 14.5971 15.5057 14.811C15.5057 15.0249 15.6792 15.1985 15.8929 15.1985H16.8995L17.6119 15.9115H11.6435L10.9312 15.1985H12.5293C12.743 15.1985 12.9165 15.0249 12.9165 14.811C12.9165 14.5971 12.743 14.4235 12.5293 14.4235H8.82816C8.61445 14.4235 8.441 14.5971 8.441 14.811C8.441 15.0249 8.61445 15.1985 8.82816 15.1985H9.83475L10.5471 15.9115H7.8897V9.0977H27.5942V15.9115H25.7668L25.0545 15.1985H26.6557ZM27.5942 24.4303V25.289H7.8897V24.4303H27.5942ZM28.5 21.9813C28.5 22.1766 28.342 22.3347 28.1469 22.3347H27.7552C27.5601 22.3347 27.4021 22.1766 27.4021 21.9813V18.3605C27.4021 18.1652 27.5601 18.0071 27.7552 18.0071H28.1469C28.342 18.0071 28.5 18.1652 28.5 18.3605V21.9813ZM7 18.3605C7 18.1652 7.15796 18.0071 7.35308 18.0071H7.64692C7.84204 18.0071 8 18.1652 8 18.3605V21.9844C8 22.1797 7.84204 22.3378 7.64692 22.3378H7.35308C7.15796 22.3378 7 22.1797 7 21.9844V18.3605ZM26.6557 18.3605V21.9844C26.6557 22.592 27.1482 23.0849 27.7552 23.0849H27.5942V23.6832H7.8897V23.0849H7.64692C8.25397 23.0849 8.74643 22.592 8.74643 21.9844V18.3605C8.74643 17.7529 8.25397 17.26 7.64692 17.26H7.8897V16.6617H27.5942V17.26H27.7552C27.1482 17.2569 26.6557 17.7529 26.6557 18.3605Z" fill="#4C779D"/>
<path d="M30.1091 10.8864H29.3565V10.0959C29.3565 9.4139 28.96 8.797 28.3437 8.5118V5.8272C28.3437 5.6195 28.1764 5.4521 27.9689 5.4521H23.862V3.3751C23.862 3.1674 23.6948 3 23.4873 3H11.9966C11.7891 3 11.6218 3.1674 11.6218 3.3751V5.4521H7.51494C7.30742 5.4521 7.14017 5.6195 7.14017 5.8272V8.487C6.49595 8.7598 6.06854 9.3984 6.06854 10.0959V10.8864H5.37476C5.16725 10.8864 5 11.0538 5 11.2615V13.4036C5 13.6113 5.16725 13.7787 5.37476 13.7787H6.07164V14.9164C6.07164 15.6139 6.49905 16.2525 7.14327 16.5253V17.26H7.35308C6.74603 17.26 6.25357 17.7529 6.25357 18.3605V21.9844C6.25357 22.592 6.74603 23.0849 7.35308 23.0849H7.14327V25.289H6.3318C6.12429 25.289 5.95704 25.4564 5.95704 25.6641V29.3531C5.95704 29.5608 6.12429 29.7282 6.3318 29.7282H7.14327V30.962C7.14327 31.1697 7.31052 31.3371 7.51803 31.3371H7.99191V32.7011C7.99191 32.9088 8.15916 33.0762 8.36667 33.0762H12.0864C12.2939 33.0762 12.4612 32.9088 12.4612 32.7011V31.3371H22.9112V32.7011C22.9112 32.9088 23.0784 33.0762 23.2859 33.0762H27.0057C27.2132 33.0762 27.3805 32.9088 27.3805 32.7011V31.3371H27.972C28.1795 31.3371 28.3468 31.1697 28.3468 30.962V29.7282H29.1583C29.3658 29.7282 29.533 29.5608 29.533 29.3531V25.6641C29.533 25.4564 29.3658 25.289 29.1583 25.289H28.3468V23.0849H28.15C28.7571 23.0849 29.2495 22.592 29.2495 21.9844V18.3605C29.2495 17.7529 28.7571 17.26 28.15 17.26H28.3468V16.5005C28.9662 16.2153 29.3596 15.6015 29.3596 14.9164V13.7787H30.1122C30.3197 13.7787 30.487 13.6113 30.487 13.4036V11.2615C30.4839 11.0538 30.3166 10.8864 30.1091 10.8864ZM29.7374 11.6335V13.0285H28.3437V11.6335H29.7374ZM28.3437 10.8864V9.417C28.514 9.5999 28.6101 9.8417 28.6101 10.0959V10.8864H28.3437ZM28.6101 13.7787V14.9164C28.6101 15.1675 28.514 15.4093 28.3437 15.5953V13.7818H28.6101V13.7787ZM23.6576 32.3229V31.334H26.6309V32.3229H23.6576ZM11.7117 31.334V32.3229H8.73834V31.334H11.7117ZM27.5942 29.7251V30.5838H7.8897V29.7251H27.5942ZM6.70347 28.978V26.0361H28.7804V28.978H6.70347ZM6.81806 10.8864V10.0959C6.81806 9.82 6.93886 9.5503 7.14017 9.3643V10.8864H6.81806ZM7.14327 11.6335V13.0285H5.74953V11.6335H7.14327ZM6.81806 13.7787H7.14017V15.648C6.93886 15.4589 6.81806 15.1923 6.81806 14.9164V13.7787ZM12.3714 5.4521V3.7471H23.1125V5.4521H12.3714ZM7.8897 8.3475V6.1992H27.5942V8.3475H7.8897ZM26.6557 15.1985C26.8694 15.1985 27.0429 15.0249 27.0429 14.811C27.0429 14.5971 26.8694 14.4235 26.6557 14.4235H22.9545C22.7408 14.4235 22.5674 14.5971 22.5674 14.811C22.5674 15.0249 22.7408 15.1985 22.9545 15.1985H23.9611L24.6735 15.9115H18.7052L17.9928 15.1985H19.591C19.8047 15.1985 19.9781 15.0249 19.9781 14.811C19.9781 14.5971 19.8047 14.4235 19.591 14.4235H15.8929C15.6792 14.4235 15.5057 14.5971 15.5057 14.811C15.5057 15.0249 15.6792 15.1985 15.8929 15.1985H16.8995L17.6119 15.9115H11.6435L10.9312 15.1985H12.5293C12.743 15.1985 12.9165 15.0249 12.9165 14.811C12.9165 14.5971 12.743 14.4235 12.5293 14.4235H8.82816C8.61445 14.4235 8.441 14.5971 8.441 14.811C8.441 15.0249 8.61445 15.1985 8.82816 15.1985H9.83475L10.5471 15.9115H7.8897V9.0977H27.5942V15.9115H25.7668L25.0545 15.1985H26.6557ZM27.5942 24.4303V25.289H7.8897V24.4303H27.5942ZM28.5 21.9813C28.5 22.1766 28.342 22.3347 28.1469 22.3347H27.7552C27.5601 22.3347 27.4021 22.1766 27.4021 21.9813V18.3605C27.4021 18.1652 27.5601 18.0071 27.7552 18.0071H28.1469C28.342 18.0071 28.5 18.1652 28.5 18.3605V21.9813ZM7 18.3605C7 18.1652 7.15796 18.0071 7.35308 18.0071H7.64692C7.84204 18.0071 8 18.1652 8 18.3605V21.9844C8 22.1797 7.84204 22.3378 7.64692 22.3378H7.35308C7.15796 22.3378 7 22.1797 7 21.9844V18.3605ZM26.6557 18.3605V21.9844C26.6557 22.592 27.1482 23.0849 27.7552 23.0849H27.5942V23.6832H7.8897V23.0849H7.64692C8.25397 23.0849 8.74643 22.592 8.74643 21.9844V18.3605C8.74643 17.7529 8.25397 17.26 7.64692 17.26H7.8897V16.6617H27.5942V17.26H27.7552C27.1482 17.2569 26.6557 17.7529 26.6557 18.3605Z" stroke="#4C779D" stroke-width="0.4" mask="url(#path-6-outside-1_3633_20939)"/>
<path d="M27.225 26.6559H22.3748C22.0969 26.6559 21.9 26.9151 21.9 27.1995V27.8904C21.9 28.1749 22.0969 28.4341 22.3748 28.4341H27.225C27.5029 28.4341 27.6998 28.1749 27.6998 27.8904V27.1995C27.6998 26.9151 27.5029 26.6559 27.225 26.6559Z" fill="#4C779D" stroke="#4C779D" stroke-width="0.2"/>
<path d="M12.9086 26.6578H8.05836C7.78046 26.6578 7.58359 26.9171 7.58359 27.2015V27.8924C7.58359 28.1768 7.78046 28.4361 8.05836 28.4361H12.9086C13.1865 28.4361 13.3834 28.1768 13.3834 27.8924V27.2015C13.3834 26.9171 13.1865 26.6578 12.9086 26.6578Z" fill="#4C779D" stroke="#4C779D" stroke-width="0.2"/>
</svg>
