<svg width="36" height="36" viewBox="0 0 36 36" fill="none" xmlns="http://www.w3.org/2000/svg">
<path fill-rule="evenodd" clip-rule="evenodd" d="M31.1744 4H9.30355C9.0903 4 8.88253 4.08235 8.72944 4.23608L4.24592 8.62823C4.01081 8.85882 3.93426 9.21569 4.06001 9.52863C4.18577 9.83608 4.4865 10.0392 4.82003 10.0392H12.7482V19.5153C12.3381 19.658 11.9718 19.9161 11.682 20.2565C11.2118 20.8165 11.0149 21.5576 11.1462 22.2878C11.3211 23.3035 12.1194 24.0996 13.1309 24.2808C13.2786 24.3082 13.4207 24.3192 13.5684 24.3192C14.1479 24.3192 14.7056 24.1161 15.154 23.7427C15.7117 23.2706 16.0343 22.5843 16.0343 21.8486C16.0343 21.3929 15.668 21.0251 15.2141 21.0251C14.7603 21.0251 14.394 21.3929 14.394 21.8486C14.394 22.0902 14.2846 22.3208 14.0987 22.48C13.9074 22.6392 13.6668 22.7051 13.4153 22.6612C13.0817 22.6008 12.8247 22.3427 12.7646 22.0078C12.7209 21.7553 12.7865 21.5137 12.945 21.3216C13.1036 21.1349 13.3332 21.0251 13.5738 21.0251C14.0276 21.0251 14.394 20.6573 14.394 20.2016V10.0392H24.892V31.1765C24.892 31.6322 25.2583 32 25.7121 32H30.0863C30.5401 32 30.9065 31.6322 30.9065 31.1765V10.0392H31.1798C31.6337 10.0392 32 9.67137 32 9.21569V4.82353C31.9945 4.36784 31.6282 4 31.1744 4ZM26.5261 15.5938L28.921 17.9984L26.5261 20.4031V15.5938ZM28.921 26.7827L26.5261 24.3779V29.1874L28.921 26.7827ZM26.8645 22.394L29.2595 19.9893V24.7987L26.8645 22.394ZM29.2595 11.2051L26.8645 13.6097L29.2595 16.0144V11.2051ZM30.3533 5.64404V7.22529L28.7786 5.64404H30.3533ZM9.29737 5.98242L6.83691 8.39262H11.6977L9.29737 5.98242ZM11.2854 5.64404H16.0752L13.6803 8.04881L11.2854 5.64404ZM18.0535 5.98926L15.6587 8.39402H20.4484L18.0535 5.98926ZM20.0337 5.64404H24.8235L22.4286 8.04881L20.0337 5.64404ZM29.195 8.39402L26.8001 5.98926L24.4053 8.39402H29.195ZM28.1009 10.0396L26.5261 11.6206V10.0396H28.1009ZM29.2594 28.7769L27.6848 30.358H29.2594V28.7769Z" fill="#4C779D"/>
</svg>
